<?xml version="1.0" standalone="no"?>
<!DOCTYPE svg PUBLIC "-//W3C//DTD SVG 1.1//EN" "http://www.w3.org/Graphics/SVG/1.1/DTD/svg11.dtd" >
<svg xmlns="http://www.w3.org/2000/svg">
<metadata>
<json>
<![CDATA[
{
	"fontFamily": "gotrend",
	"fontURL": "http://gotrend.com",
	"designer": "Gotrend-team",
	"description": "Font generated by IcoMoon.",
	"copyright": "Gotrend",
	"majorVersion": 1,
	"minorVersion": 1,
	"version": "Version 1.1",
	"fontId": "gotrend",
	"psName": "gotrend",
	"subFamily": "Regular",
	"fullName": "gotrend"
}
]]>
</json>
</metadata>
<defs>
<font id="gotrend" horiz-adv-x="1024">
<font-face units-per-em="1024" ascent="960" descent="-64" />
<missing-glyph horiz-adv-x="1024" />
<glyph unicode="&#x20;" horiz-adv-x="512" d="" />
<glyph unicode="&#xe900;" glyph-name="shopping-bag" data-tags="shopping-bag" d="M512 800c0.034 0 0.073 0 0.113 0 59.269 0 109.11-40.368 123.528-95.11l0.199-0.89h-247.68c14.617 55.632 64.458 96 123.727 96 0.040 0 0.079 0 0.119 0h-0.006zM847.216 256v0c-0.001 0-0.001 0-0.002 0-17.625 0-31.914-14.288-31.914-31.914 0-0.95 0.041-1.89 0.123-2.818l-0.008 0.12 4.746-55.949c0.14-1.586 0.219-3.432 0.219-5.296 0-35.34-28.579-64.004-63.886-64.143h-488.973c-35.32 0.139-63.899 28.804-63.899 64.144 0 1.864 0.080 3.71 0.235 5.534l-0.016-0.238 44.16 445.44c1.538 16.392 15.229 29.12 31.894 29.12 0.037 0 0.075 0 0.112 0h39.994v-96c0-17.673 14.327-32 32-32s32 14.327 32 32v0 96h256v-96c0-17.673 14.327-32 32-32s32 14.327 32 32v0 96h40c0.032 0 0.069 0 0.106 0 16.664 0 30.356-12.728 31.884-28.992l0.010-0.128 19.84-229.76c1.612-16.281 15.139-28.92 31.66-29.12h0.34c0.050 0 0.109 0 0.169 0 17.64 0 31.939 14.3 31.939 31.939 0 0.923-0.039 1.836-0.116 2.739l0.008-0.118-20.16 229.76c-4.454 49.315-45.586 87.666-95.678 87.68h-42.882c-15.769 91.373-94.43 160.002-189.12 160.002s-173.351-68.629-188.957-158.86l-0.163-1.142h-42.88c-50.094-0.014-91.226-38.365-95.653-87.308l-0.027-0.372-44.16-445.12c-0.318-3.385-0.5-7.319-0.5-11.296 0-70.624 57.239-127.879 127.857-127.904h488.963c70.62 0.025 127.86 57.28 127.86 127.904 0 3.977-0.181 7.911-0.537 11.795l0.037-0.499-4.829 55.645c-1.465 16.398-15.14 29.155-31.794 29.155 0 0-0.001 0-0.001 0v0z" />
<glyph unicode="&#xe901;" glyph-name="wishlist" data-tags="wishlist" d="M886.72 758.72c-45.526 45.29-108.294 73.286-177.6 73.286s-132.074-27.996-177.611-73.296l0.011 0.011-19.52-19.84-19.84 19.84c-45.486 45.761-108.471 74.083-178.071 74.083-138.653 0-251.053-112.4-251.053-251.053 0-69.68 28.387-132.729 74.228-178.214l318.416-315.536c14.405-14.432 34.32-23.361 56.32-23.361s41.915 8.928 56.319 23.359l0.001 0.001 60.618 59.92c5.872 5.807 9.509 13.864 9.509 22.771 0 8.842-3.584 16.846-9.378 22.64l-0.115 0.115c-5.794 5.795-13.8 9.379-22.642 9.379-8.798 0-16.767-3.548-22.554-9.291l0.002 0.002-60.56-60.096c-2.822-2.96-6.796-4.8-11.2-4.8s-8.378 1.841-11.194 4.794l-0.006 0.006-318.4 315.52c-33.795 33.835-54.696 80.557-54.696 132.16 0 103.286 83.73 187.016 187.016 187.016 51.683 0 98.469-20.965 132.318-54.854l64.962-64.962 45.12 45.44 19.84 19.52c33.79 33.53 80.332 54.251 131.714 54.251 103.287 0 187.018-83.731 187.018-187.018 0-51.302-20.657-97.78-54.107-131.569l0.015 0.015-143.504-142.4c-5.842-5.802-9.459-13.839-9.459-22.72s3.616-16.918 9.457-22.718l0.002-0.002c5.786-5.747 13.758-9.299 22.56-9.299s16.774 3.552 22.562 9.301l143.518 142.398c45.29 45.526 73.286 108.294 73.286 177.6s-27.996 132.074-73.296 177.611l0.011-0.011z" />
<glyph unicode="&#xe902;" glyph-name="user" data-tags="user" d="M862.003 335.856c-28.544 24.666-61.329 45.537-96.905 61.242l-2.493 0.982c-3.882 1.769-8.419 2.8-13.197 2.8-17.949 0-32.499-14.55-32.499-32.499 0-13.171 7.835-24.512 19.098-29.616l0.204-0.083c35.769-15.437 66.429-35.859 92.76-60.806l-0.142 0.134c21.766-22.291 35.194-52.807 35.194-86.46 0-0.837-0.008-1.673-0.025-2.507l0.002 0.125v-61.168c0-17.673-14.327-32-32-32v0h-640c-17.673 0-32 14.327-32 32v0 64c0.378 38.107 17.669 72.1 44.713 94.885l0.189 0.155c32.63 28.666 130.637 96.125 307.098 96.96 1.21-0.022 2.638-0.035 4.068-0.035 102.943 0 190.507 65.844 222.874 157.715l0.508 1.654c8.795 23.998 13.881 51.707 13.881 80.604 0 133.079-107.881 240.96-240.96 240.96s-240.96-107.881-240.96-240.96c0-77.552 36.637-146.547 93.547-190.622l0.552-0.411c-78.538-15.678-147.354-49.764-204.206-97.612l0.686 0.562c-40.508-34.975-65.99-86.398-65.99-143.772 0-0.029 0-0.059 0-0.088v0.004-64c0-53.019 42.981-96 96-96v0h640c53.019 0 96 42.981 96 96v0 64c0 0.023 0 0.051 0 0.078 0 57.377-25.485 108.802-65.754 143.573l-0.243 0.205zM336.499 623.501c0 0.019 0 0.041 0 0.064 0 96.962 78.603 175.565 175.565 175.565s175.565-78.603 175.565-175.565c0-96.962-78.603-175.565-175.565-175.565-0.023 0-0.045 0-0.068 0h0.004c-96.855 0.178-175.323 78.646-175.501 175.484v0.017z" />
<glyph unicode="&#xe903;" glyph-name="share" data-tags="share" d="M911.040 263.36c10.616-20.82 16.836-45.409 16.836-71.45 0-88.383-71.649-160.032-160.032-160.032s-160.032 71.649-160.032 160.032c0 10.442 1 20.651 2.91 30.536l-0.162-1.006-229.12 127.36c-3.868-5.199-7.855-9.795-12.155-14.075l-0.005-0.005c-28.991-28.991-69.041-46.922-113.28-46.922-88.477 0-160.202 71.725-160.202 160.202 0 44.239 17.931 84.289 46.922 113.28v0c27.814 27.975 65.985 45.626 108.276 46.716l0.204 0.004c0.332 0.012 0.722 0.019 1.114 0.019 18.124 0 32.816-14.692 32.816-32.816 0-1.638-0.12-3.248-0.352-4.821l0.022 0.178h-0.32c-2.893-15.392-16.229-26.882-32.248-26.882-0.138 0-0.275 0.001-0.412 0.003h0.021c-51.242-2.195-91.953-44.27-91.953-95.853 0-37.172 21.141-69.406 52.055-85.335l0.538-0.252c12.555-6.779 27.48-10.763 43.336-10.763 15.368 0 29.861 3.743 42.619 10.366l-0.515-0.243c32.152 15.966 53.861 48.576 53.861 86.257 0 15.811-3.822 30.729-10.593 43.881l0.252-0.539c-1.93 3.966-3.059 8.627-3.059 13.552 0 11.908 6.597 22.275 16.336 27.646l0.163 0.082 255.68 142.080c-1.737 8.857-2.731 19.042-2.731 29.459 0 44.227 17.919 84.269 46.892 113.262l-0.001-0.001c27.814 27.975 65.985 45.626 108.276 46.716l0.204 0.004c0.391 0.017 0.849 0.026 1.31 0.026 17.918 0 32.46-14.45 32.61-32.332v-0.014c0.008-0.254 0.013-0.552 0.013-0.851 0-1.507-0.121-2.986-0.354-4.427l0.021 0.158c-3.25-15.271-16.623-26.56-32.634-26.56-0.002 0-0.005 0-0.007 0v0c-51.335-2.254-92.099-44.419-92.099-96.105 0-37.147 21.057-69.376 51.885-85.403l0.534-0.252c12.555-6.779 27.48-10.763 43.336-10.763 15.368 0 29.861 3.743 42.619 10.366l-0.515-0.243c32.179 16.032 53.897 48.701 53.897 86.443 0 15.861-3.836 30.825-10.63 44.017l0.253-0.54c-1.87 3.906-2.963 8.491-2.963 13.33 0 11.856 6.556 22.182 16.241 27.548l0.161 0.082c4.53 2.608 9.962 4.146 15.754 4.146 12.29 0 22.961-6.928 28.322-17.092l0.084-0.175c10.665-20.859 16.915-45.5 16.915-71.601 0-88.366-71.634-160-160-160-44.231 0-84.271 17.948-113.233 46.959l-0.002 0.002c-7.234 7.249-13.765 15.203-19.481 23.75l-0.359 0.57-224.64-125.12c3.657-12.564 5.76-26.996 5.76-41.92s-2.103-29.356-6.030-43.017l0.27 1.097 224.64-125.12c28.123 41.987 74.848 69.618 128.109 71.036l0.211 0.004c0.391 0.017 0.849 0.026 1.31 0.026 17.918 0 32.46-14.45 32.61-32.332v-0.014c0.008-0.254 0.013-0.552 0.013-0.851 0-1.507-0.121-2.986-0.354-4.427l0.021 0.158c-3.25-15.271-16.623-26.56-32.634-26.56-0.002 0-0.005 0-0.007 0v0c-51.335-2.254-92.099-44.419-92.099-96.105 0-37.147 21.057-69.376 51.885-85.403l0.534-0.252c12.555-6.779 27.48-10.763 43.336-10.763 15.368 0 29.861 3.743 42.619 10.366l-0.515-0.243c32.179 16.032 53.897 48.701 53.897 86.443 0 15.861-3.836 30.825-10.63 44.017l0.253-0.54c-1.87 3.906-2.963 8.491-2.963 13.33 0 11.856 6.556 22.182 16.241 27.548l0.161 0.082c4.53 2.608 9.962 4.146 15.754 4.146 12.29 0 22.961-6.928 28.322-17.092l0.084-0.175z" />
<glyph unicode="&#xe904;" glyph-name="search" data-tags="search" d="M918.72 39.36c-5.849-5.739-13.871-9.28-22.72-9.28s-16.871 3.542-22.725 9.285l0.005-0.005-201.28 201.6c-60.407-50.377-138.852-80.96-224.441-80.96-74.867 0-144.268 23.401-201.289 63.287l1.135-0.752c-8.244 5.883-13.555 15.416-13.555 26.189 0 8.874 3.603 16.906 9.426 22.713l0.116 0.116c5.713 5.803 13.654 9.398 22.435 9.398 6.62 0 12.763-2.044 17.832-5.535l-0.106 0.069c45.788-32.214 102.708-51.483 164.128-51.483 158.705 0 287.36 128.655 287.36 287.36 0 2.979-0.045 5.948-0.135 8.905l0.010-0.433c-6.234 151.555-127.514 272.842-278.49 279.066l-0.579 0.019c-2.398 0.072-5.218 0.113-8.048 0.113-158.902 0-287.726-128.779-287.798-287.664v-0.007c-0.001-0.206-0.001-0.451-0.001-0.695 0-46.403 11.15-90.201 30.917-128.862l-0.743 1.602c1.911-3.926 3.027-8.541 3.027-13.416 0-8.794-3.633-16.739-9.481-22.416l-0.008-0.007c-5.788-5.854-13.82-9.479-22.698-9.479-12.233 0-22.859 6.882-28.216 16.986l-0.084 0.173c-23.151 45.594-36.713 99.416-36.713 156.406 0 194.139 157.381 351.52 351.52 351.52s351.52-157.381 351.52-351.52c0-86.109-30.962-164.987-82.36-226.108l0.439 0.536 201.6-201.6c5.782-5.77 9.36-13.747 9.36-22.56s-3.577-16.79-9.359-22.559l-0.001-0.001z" />
<glyph unicode="&#xe905;" glyph-name="home" data-tags="home" d="M917.76 424.522c-5.672-5.34-13.331-8.626-21.757-8.64h-0.003c-0.031 0-0.068 0-0.105 0-9.195 0-17.471 3.937-23.234 10.217l-0.021 0.023-40.64 43.837v-150c0-17.673-14.327-32-32-32s-32 14.327-32 32v0 219.44l-232.64 251.84c-5.933 6.076-14.207 9.844-23.36 9.844s-17.427-3.768-23.354-9.837l-0.006-0.006-232.64-251.84v-411.44c0.054-17.651 14.349-31.946 31.995-32h448.005c17.651 0.054 31.946 14.349 32 31.995v32.005c0 17.673 14.327 32 32 32s32-14.327 32-32v0-32c0-0.038 0-0.083 0-0.128 0-52.949-42.923-95.872-95.872-95.872-0.045 0-0.090 0-0.135 0h-447.993c-0.038 0-0.083 0-0.128 0-52.949 0-95.872 42.923-95.872 95.872 0 0.045 0 0.090 0 0.135v-0.007 342l-40.64-43.84c-5.844-6.262-14.146-10.165-23.36-10.165-17.632 0-31.925 14.293-31.925 31.925 0 8.418 3.258 16.075 8.582 21.779l336.943 365.105c17.986 18.085 42.886 29.277 70.4 29.277s52.414-11.193 70.396-29.273l0.004-0.004 336.96-365.12c5.32-5.681 8.587-13.34 8.587-21.763 0-9.217-3.912-17.52-10.167-23.339l-0.019-0.018z" />
<glyph unicode="&#xe906;" glyph-name="categories" data-tags="categories" d="M776.902 544c35.345-0.002 63.997-28.655 63.997-64 0-3.716-0.317-7.358-0.925-10.901l0.054 0.38-53.331-320c-5.141-30.519-31.37-53.479-62.961-53.479-0.059 0-0.119 0-0.178 0h-423.127c-0.050 0-0.109 0-0.169 0-31.591 0-57.82 22.96-62.909 53.103l-0.052 0.375-53.331 320c-0.554 3.163-0.871 6.805-0.871 10.522 0 35.345 28.652 63.998 63.997 64h529.805zM776.902 608h-529.805c-70.691-0.001-127.998-57.308-127.998-128 0-7.432 0.633-14.717 1.849-21.802l-0.108 0.759 53.331-320c10.457-61.066 62.998-106.957 126.258-106.957 0 0 0.001 0 0.001 0h423.136c0 0 0 0 0.001 0 63.26 0 115.802 45.891 126.151 106.198l0.108 0.759 53.331 320c1.108 6.326 1.742 13.611 1.742 21.043 0 70.692-57.306 127.999-127.997 128v0zM736 864h-448c-17.673 0-32-14.327-32-32s14.327-32 32-32v0h448c17.673 0 32 14.327 32 32s-14.327 32-32 32v0zM800 736h-576c-17.673 0-32-14.327-32-32s14.327-32 32-32v0h576c17.673 0 32 14.327 32 32s-14.327 32-32 32v0z" />
<glyph unicode="&#xe907;" glyph-name="time" data-tags="time" d="M384 256c-0.006 0-0.012 0-0.019 0-17.664 0-31.984 14.32-31.984 31.984 0 8.822 3.572 16.809 9.347 22.596v0l118.189 118.672 0.467 242.813c0.036 17.646 14.349 31.936 32 31.936 0 0 0 0 0 0h0.064c17.646-0.036 31.936-14.349 31.936-32 0-0.023 0-0.045 0-0.068v0.003l-0.531-269.187-136.813-137.328c-5.77-5.819-13.767-9.421-22.605-9.421-0.018 0-0.036 0-0.054 0h0.003zM806.157 742.157c-75.281 75.281-179.281 121.844-294.157 121.844-229.751 0-416.001-186.25-416.001-416.001 0-114.875 46.562-218.876 121.844-294.157v0c75.305-75.282 179.325-121.844 294.22-121.844 79.514 0 153.82 22.3 217.004 60.988l-1.819-1.036c9.452 5.796 15.663 16.072 15.663 27.798 0 17.949-14.551 32.5-32.5 32.5-6.223 0-12.037-1.749-16.978-4.782l0.141 0.081c-53.255-33.206-117.917-52.894-187.177-52.894-197.513 0-357.629 160.116-357.629 357.629s160.116 357.629 357.629 357.629c197.513 0 357.629-160.116 357.629-357.629 0-74.24-22.621-143.197-61.347-200.353l0.803 1.257c-3.434-5.073-5.482-11.329-5.482-18.062 0-17.949 14.55-32.499 32.499-32.499 11.215 0 21.103 5.681 26.944 14.322l0.073 0.115c44.146 64.936 70.483 145.074 70.483 231.364 0 114.741-46.568 218.605-121.836 293.723l-0.007 0.007z" />
<glyph unicode="&#xe908;" glyph-name="credit-card" data-tags="credit-card" d="M896 416v96h-768v-256c0.694-34.953 29.193-63.022 64.247-63.022 0.616 0 1.231 0.009 1.843 0.026l-0.090-0.002h636c0.522-0.015 1.136-0.024 1.753-0.024 35.054 0 63.553 28.069 64.246 62.957l0.001 0.065c-0.007 0.251-0.011 0.546-0.011 0.842 0 17.433 14.091 31.575 31.504 31.657h0.008c0.001 0 0.002 0 0.003 0 17.947 0 32.496-14.549 32.496-32.496 0-0.001 0-0.002 0-0.003v0c-0.251-70.751-57.664-128.009-128.45-128.009-0.545 0-1.089 0.003-1.632 0.010l0.083-0.001h-636c-0.461-0.006-1.005-0.009-1.55-0.009-70.786 0-128.199 57.258-128.45 127.985v384.024c-0.004 0.373-0.006 0.813-0.006 1.254 0 70.003 56.749 126.752 126.752 126.752 0.441 0 0.882-0.002 1.321-0.007l-0.067 0.001h640c0.373 0.004 0.813 0.006 1.254 0.006 70.003 0 126.752-56.749 126.752-126.752 0-0.441-0.002-0.882-0.007-1.321l0.001 0.067v-224c0-17.673-14.327-32-32-32s-32 14.327-32 32v0zM896 576v64c0.002 0.185 0.003 0.405 0.003 0.624 0 35.003-28.376 63.379-63.379 63.379-0.219 0-0.438-0.001-0.657-0.003h-639.967c-0.185 0.002-0.405 0.003-0.624 0.003-35.003 0-63.379-28.376-63.379-63.379 0-0.219 0.001-0.438 0.003-0.657v0.033-64zM224 448h256c17.673 0 32-14.327 32-32s-14.327-32-32-32h-256c-17.673 0-32 14.327-32 32s14.327 32 32 32z" />
<glyph unicode="&#xe909;" glyph-name="card-secure" data-tags="card-secure" d="M896 448v128h-768v-256c0-34.793 28.205-62.998 62.998-62.998v0h288.502c17.949-0.002 32.499-14.553 32.499-32.502v0c0-17.949-14.55-32.499-32.499-32.499v0h-285.501c-0.001 0-0.002 0-0.003 0-71.795 0-129.997 58.202-129.997 129.997 0 0.001 0 0.002 0 0.003v0 382c0 70.692 57.308 128 128 128v0h640c70.692 0 128-57.308 128-128v0-256c0-17.673-14.327-32-32-32s-32 14.327-32 32v0zM896 640v64c0.002 0.185 0.003 0.405 0.003 0.624 0 35.003-28.376 63.379-63.379 63.379-0.219 0-0.438-0.001-0.657-0.003h-639.967c-0.185 0.002-0.405 0.003-0.624 0.003-35.003 0-63.379-28.376-63.379-63.379 0-0.219 0.001-0.438 0.003-0.657v0.033-64zM896 256v-128h-256v128h256zM896 320h-256c-35.346 0-64-28.654-64-64v0-128c0-35.346 28.654-64 64-64v0h256c35.346 0 64 28.654 64 64v0 128c0 35.346-28.654 64-64 64v0zM768 384c17.665-0.020 31.98-14.335 32-31.998v-32.002h-64v32c0.020 17.665 14.335 31.98 31.998 32h0.002zM768 448c-53.019 0-96-42.981-96-96v0-96h192v96c0 53.019-42.981 96-96 96v0z" />
<glyph unicode="&#xe90a;" glyph-name="order" data-tags="order" d="M896 320c17.652 0.053 31.947 14.348 32 31.995v288.005c0.002 0.114 0.003 0.248 0.003 0.382 0 2.729-0.47 5.348-1.333 7.78l0.050-0.163c-0.138 1.657-0.595 3.18-1.311 4.545l0.031-0.065c-1.64 3.978-3.912 7.378-6.725 10.245l0.005-0.005-160 192c-5.88 5.687-13.882 9.213-22.707 9.28h-448.013c-8.838-0.067-16.84-3.593-22.729-9.289l0.009 0.009-160-192c-2.808-2.862-5.080-6.262-6.643-10.030l-0.077-0.21c-0.685-1.3-1.142-2.823-1.277-4.437l-0.003-0.043c-0.813-2.27-1.283-4.889-1.283-7.618 0-0.134 0.001-0.268 0.003-0.402v0.020-544c0.107-35.303 28.697-63.893 63.99-64h704.010c35.303 0.107 63.893 28.697 64 63.99v96.010c0 17.673-14.327 32-32 32s-32-14.327-32-32v0-96h-704v512h704v-256c0.053-17.652 14.348-31.947 31.995-32h0.005zM480 672h-284.16l105.28 128h178.88zM544 672v128h178.88l105.28-128zM640 448h-256c-17.673 0-32 14.327-32 32s14.327 32 32 32v0h256c17.673 0 32-14.327 32-32s-14.327-32-32-32v0z" />
<glyph unicode="&#xe90b;" glyph-name="order-out" data-tags="order-out" d="M630.4 361.6c-6.4-6.4-12.8-9.6-22.4-9.6s-16 3.2-22.4 9.6l-41.6 41.6v-179.2c0-16-16-32-32-32s-32 16-32 32v179.2l-41.6-41.6c-12.8-12.8-32-12.8-44.8 0s-12.8 32 0 44.8l96 96c3.2 3.2 9.6 9.6 22.4 9.6s19.2-6.4 22.4-9.6l96-96c12.8-12.8 12.8-32 0-44.8zM896 320c16 0 32 16 32 32v288c0 3.2 0 6.4 0 6.4s0 3.2 0 3.2-3.2 6.4-6.4 9.6l-160 192c-9.6 9.6-16 12.8-25.6 12.8h-448c-9.6 0-16-3.2-22.4-9.6l-160-192c-3.2-3.2-6.4-6.4-6.4-9.6 0 0 0-3.2 0-6.4 0 0 0-3.2 0-6.4v0c0-3.2 0-3.2 0-6.4 0 3.2 0 3.2 0 6.4v0c0 0 0 0 0 0v-544c0-35.2 28.8-64 64-64h704c35.2 0 64 28.8 64 64v96c0 16-16 32-32 32s-32-16-32-32v-96h-707.2v512h704v-256c0-16 16-32 32-32zM480 672h-284.8l105.6 128h179.2v-128zM544 672v128h179.2l105.6-128h-284.8z" />
<glyph unicode="&#xe90c;" glyph-name="pin" data-tags="pin" d="M512 800c158.985-0.182 287.818-129.015 288-287.983v-0.017c0-204.73-223.866-393.302-288-415.002-64.134 21.699-288 210.272-288 415.002 0.182 158.985 129.015 287.818 287.983 288h0.017zM512 864c-194.404 0-352-157.596-352-352v0c0-256 288-480 352-480s352 224 352 480c0 194.404-157.596 352-352 352v0zM667.568 625.037c-35.326 48.129-91.687 79.023-155.263 79.023-106.062 0-192.042-85.98-192.042-192.042s85.98-192.042 192.042-192.042c18.399 0 36.194 2.588 53.041 7.419l-1.355-0.332c13.342 3.822 22.941 15.911 22.941 30.243 0 8.63-3.481 16.447-9.116 22.124l0.002-0.002c-6.023 6.374-14.536 10.342-23.974 10.342-2.683 0-5.29-0.32-7.787-0.925l0.225 0.046c-10.192-2.922-21.898-4.603-33.997-4.603-70.613 0-127.856 57.243-127.856 127.856s57.243 127.856 127.856 127.856c70.613 0 127.856-57.243 127.856-127.856 0-12.123-1.687-23.851-4.839-34.964l0.219 0.901c-0.548-2.163-0.862-4.646-0.862-7.203 0-8.716 3.656-16.579 9.518-22.138l0.014-0.013c5.808-5.876 13.867-9.515 22.777-9.515 14.423 0 26.619 9.536 30.626 22.648l0.060 0.227c4.296 15.089 6.766 32.419 6.766 50.326 0 42.367-13.828 81.504-37.216 113.144l0.367-0.519z" />
<glyph unicode="&#xe90d;" glyph-name="checked" data-tags="checked" d="M512 864c-229.75 0-416-186.25-416-416s186.25-416 416-416c229.75 0 416 186.25 416 416v0c0 229.75-186.25 416-416 416v0zM512 96c-194.404 0-352 157.596-352 352s157.596 352 352 352c194.404 0 352-157.596 352-352v0c0-194.404-157.596-352-352-352v0zM455.437 300.922c-0.010 0-0.022 0-0.034 0-8.825 0-16.814 3.584-22.589 9.375l-90.516 90.516c-5.587 5.754-9.032 13.616-9.032 22.281 0 17.673 14.327 32 32 32 8.665 0 16.526-3.444 22.288-9.038l67.883-67.883 181.018 181.014c5.754 5.586 13.615 9.030 22.28 9.030 17.673 0 32-14.327 32-32 0-8.666-3.445-16.527-9.039-22.289l-203.614-203.63c-5.777-5.792-13.766-9.376-22.592-9.376-0.018 0-0.036 0-0.054 0h0.003z" />
<glyph unicode="&#xe90e;" glyph-name="arrow-left" data-tags="arrow-left" d="M928.080 448c-0.053-17.652-14.348-31.947-31.995-32h-690.885l233.6-233.28c5.785-5.828 9.359-13.857 9.359-22.72s-3.575-16.892-9.361-22.722l0.002 0.002c-5.849-5.739-13.871-9.28-22.72-9.28s-16.871 3.542-22.725 9.285l-287.995 287.995c-5.785 5.828-9.359 13.857-9.359 22.72s3.575 16.892 9.361 22.722l287.998 287.998c5.824 5.87 13.894 9.504 22.813 9.504 17.746 0 32.131-14.386 32.131-32.131 0-8.919-3.634-16.989-9.502-22.811l-0.002-0.002-233.6-233.28h690.88c17.652-0.053 31.947-14.348 32-31.995v-0.005z" />
<glyph unicode="&#xe90f;" glyph-name="arrow-right" data-tags="arrow-right" d="M95.92 448c0.053 17.652 14.348 31.947 31.995 32h690.885l-233.6 233.28c-5.785 5.828-9.359 13.857-9.359 22.72s3.575 16.892 9.361 22.722l-0.002-0.002c5.849 5.739 13.871 9.28 22.72 9.28s16.871-3.542 22.725-9.285l287.995-287.995c5.785-5.828 9.359-13.857 9.359-22.72s-3.575-16.892-9.361-22.722l-287.998-287.998c-5.805-5.759-13.801-9.318-22.627-9.318-17.746 0-32.131 14.386-32.131 32.131 0 8.827 3.559 16.822 9.321 22.629l-0.002-0.002 233.6 233.28h-690.88c-17.652 0.053-31.947 14.348-32 31.995v0.005z" />
<glyph unicode="&#xe910;" glyph-name="arrow-up" data-tags="arrow-up" d="M512 31.92c-17.652 0.053-31.947 14.348-32 31.995v690.885l-233.28-233.6c-5.828-5.785-13.857-9.359-22.72-9.359s-16.892 3.575-22.722 9.361l0.002-0.002c-5.739 5.849-9.28 13.871-9.28 22.72s3.542 16.871 9.285 22.725l287.995 287.995c5.828 5.785 13.857 9.359 22.72 9.359s16.892-3.575 22.722-9.361l287.998-287.998c5.87-5.824 9.504-13.894 9.504-22.813 0-17.746-14.386-32.131-32.131-32.131-8.919 0-16.989 3.634-22.811 9.502l-0.002 0.002-233.28 233.6v-690.88c-0.053-17.652-14.348-31.947-31.995-32h-0.005z" />
<glyph unicode="&#xe911;" glyph-name="arrow-down" data-tags="arrow-down" d="M512 864.080c17.652-0.053 31.947-14.348 32-31.995v-690.885l233.28 233.6c5.828 5.785 13.857 9.359 22.72 9.359s16.892-3.575 22.722-9.361l-0.002 0.002c5.739-5.849 9.28-13.871 9.28-22.72s-3.542-16.871-9.285-22.725l-287.995-287.995c-5.828-5.785-13.857-9.359-22.72-9.359s-16.892 3.575-22.722 9.361l-287.998 287.998c-5.759 5.805-9.318 13.801-9.318 22.627 0 17.746 14.386 32.131 32.131 32.131 8.827 0 16.822-3.559 22.629-9.321l-0.002 0.002 233.28-233.6v690.88c0.053 17.652 14.348 31.947 31.995 32h0.005z" />
<glyph unicode="&#xe912;" glyph-name="more-h" data-tags="more-h" d="M832 448c0-35.346-28.654-64-64-64s-64 28.654-64 64c0 35.346 28.654 64 64 64s64-28.654 64-64zM576 448c0-35.346-28.654-64-64-64s-64 28.654-64 64c0 35.346 28.654 64 64 64s64-28.654 64-64zM320 448c0-35.346-28.654-64-64-64s-64 28.654-64 64c0 35.346 28.654 64 64 64s64-28.654 64-64z" />
<glyph unicode="&#xe913;" glyph-name="more-v" data-tags="more-v" d="M576 192c0-35.346-28.654-64-64-64s-64 28.654-64 64c0 35.346 28.654 64 64 64s64-28.654 64-64zM576 448c0-35.346-28.654-64-64-64s-64 28.654-64 64c0 35.346 28.654 64 64 64s64-28.654 64-64zM576 704c0-35.346-28.654-64-64-64s-64 28.654-64 64c0 35.346 28.654 64 64 64s64-28.654 64-64z" />
<glyph unicode="&#xe914;" glyph-name="upload" data-tags="upload" d="M800 32h-576c-70.662 0.077-127.924 57.338-128 127.993v160.007c0 17.673 14.327 32 32 32s32-14.327 32-32v0-160c0.042-35.329 28.671-63.958 63.996-64h576.004c35.329 0.042 63.958 28.671 64 63.996v160.004c0 17.673 14.327 32 32 32s32-14.327 32-32v0-160c-0.077-70.662-57.338-127.924-127.993-128h-0.007zM758.72 585.28c-5.849-5.739-13.871-9.28-22.72-9.28s-16.871 3.542-22.725 9.285l0.005-0.005-169.28 169.6v-530.88c0-17.673-14.327-32-32-32s-32 14.327-32 32v0 530.88l-169.28-169.6c-5.805-5.759-13.801-9.318-22.627-9.318-17.746 0-32.131 14.386-32.131 32.131 0 8.827 3.559 16.822 9.321 22.629l223.998 223.998c5.828 5.785 13.857 9.359 22.72 9.359s16.892-3.575 22.722-9.361l223.998-223.998c5.785-5.828 9.359-13.857 9.359-22.72s-3.575-16.892-9.361-22.722l0.002 0.002z" />
<glyph unicode="&#xe915;" glyph-name="check-mark" data-tags="check-mark" d="M384 128c-0.002 0-0.005 0-0.008 0-8.834 0-16.83 3.583-22.616 9.376v0l-256 256c-5.558 5.749-8.983 13.59-8.983 22.231 0 17.673 14.327 32 32 32 8.641 0 16.482-3.425 22.24-8.991l231.991-231.991 489.469 550.643c5.899 6.77 14.536 11.024 24.166 11.024 17.673 0 32-14.327 32-32 0-8.317-3.173-15.893-8.374-21.583l0.022 0.025-512-576c-5.679-6.379-13.822-10.458-22.922-10.732l-0.048-0.001z" />
<glyph unicode="&#xe916;" glyph-name="women" data-tags="women" d="M920.198 528c-3.072 15.157-16.286 26.405-32.129 26.405-3.027 0-5.959-0.411-8.741-1.18l0.23 0.054c-13.331-3.77-22.952-15.79-23.040-30.070v-0.010c0.060-2.191 0.291-4.286 0.679-6.325l-0.039 0.245c4.249-20.551 6.681-44.168 6.681-68.354 0-102.742-43.894-195.232-113.953-259.74l-0.248-0.226c-1.288 0.776-2.775 1.431-4.346 1.887l-0.134 0.033-123.52 37.44c-8.39 6.254-13.764 16.148-13.764 27.298 0 0.19 0.002 0.381 0.005 0.57v-0.029 27.84l41.28 4.48c48.234 3.114 86.176 42.998 86.176 91.743 0 3.076-0.151 6.118-0.446 9.116l0.030-0.38-29.44 192c-10.774 86.435-82.725 152.974-170.656 155.196l-0.224 0.004h-30.72c-4.48 0-14.080-0.96-14.080-0.96-89.605-12.352-160.039-81.266-174.558-169.051l-0.162-1.189-26.88-176c-0.25-2.548-0.393-5.509-0.393-8.502 0-49.223 38.617-89.427 87.207-91.968l0.227-0.009 40.64-4.48v-27.84c0.003-0.161 0.004-0.351 0.004-0.542 0-11.15-5.375-21.045-13.675-27.234l-0.090-0.064-123.52-37.44c-1.958-0.612-3.653-1.372-5.236-2.303l0.116 0.063c-30.84 27.99-56.265 61.287-74.961 98.545l-0.879 1.935c-23.903 46.261-37.918 100.973-37.918 158.959 0 194.486 157.662 352.147 352.147 352.147 117.604 0 221.743-57.65 285.7-146.231l0.712-1.036c5.805-8.665 15.557-14.292 26.623-14.292 17.641 0 31.942 14.301 31.942 31.942 0 0.207-0.002 0.414-0.006 0.621v-0.031c-0.040 6.828-2.19 13.146-5.829 18.344l0.069-0.104c-76.351 106.601-199.814 175.242-339.31 175.242-229.812 0-416.112-186.3-416.112-416.112s186.3-416.112 416.112-416.112c229.812 0 416.112 186.3 416.112 416.112 0 28.157-2.797 55.661-8.127 82.249l0.445-2.659zM542.598 97.28c-9.512-0.924-20.562-1.451-31.736-1.451-63.559 0-123.136 17.049-174.408 46.823l1.664-0.892 86.4 26.24c2.345 0.741 4.357 1.609 6.261 2.651l-0.181-0.091c29.632 16.882 49.288 48.261 49.288 84.231 0 0.425-0.003 0.85-0.008 1.274l0.001-0.064v56.32c0 0.008 0 0.018 0 0.028 0 16.47-12.371 30.050-28.327 31.957l-0.153 0.015-67.52 7.36c-14.080 1.92-34.88 11.52-32.32 27.52l26.88 175.68c9.824 63.144 61.23 111.708 124.933 117.086l0.507 0.034h30.72c56.102-2.418 101.442-45.44 107.475-100.294l0.045-0.506 29.44-192c2.88-17.92-23.040-26.24-30.72-27.52l-68.48-7.36c-16.109-1.921-28.48-15.502-28.48-31.972 0-0.010 0-0.020 0-0.030v0.002-56.32c-0.005-0.36-0.008-0.784-0.008-1.209 0-35.97 19.656-67.348 48.812-83.981l0.475-0.25c1.723-0.951 3.735-1.819 5.834-2.492l0.246-0.068 86.080-26.24c-41.156-23.548-89.616-39.428-141.269-44.368l-1.451-0.112z" />
<glyph unicode="&#xe917;" glyph-name="men" data-tags="men" d="M920.32 528c-3.072 15.157-16.286 26.405-32.129 26.405-3.027 0-5.959-0.411-8.741-1.18l0.23 0.054c-13.331-3.77-22.952-15.79-23.040-30.070v-0.010c0.060-2.191 0.291-4.286 0.679-6.325l-0.039 0.245c4.266-20.594 6.708-44.261 6.708-68.498 0-71.904-21.493-138.787-58.405-194.576l0.817 1.315c-7.36 1.6-132.48 28.8-170.24 36.48 0 0.96 0.32 2.24 0.32 3.2l30.4 53.76c26.102 25.282 45.025 57.832 53.507 94.385l0.253 1.295c1.252 5.711 1.969 12.271 1.969 18.999 0 15.248-3.685 29.636-10.212 42.321l0.243-0.52c-1.28 16.32-3.84 54.4-7.36 84.8-3.2 56-19.52 91.84-48.64 106.24-13.435 6.603-29.056 12.015-45.406 15.449l-1.314 0.231c-27.584 13.246-59.741 21.872-93.666 23.964l-0.734 0.036h-2.24c-51.52-0.96-159.68-40.32-189.12-131.84-6.561-22.435-10.336-48.208-10.336-74.863 0-9.698 0.5-19.28 1.475-28.72l-0.099 1.183c-5.043-11.788-7.975-25.504-7.975-39.906 0-6.366 0.573-12.598 1.67-18.648l-0.095 0.633c7.521-38.168 26.832-70.943 53.918-95.217l0.162-0.143 28.48-49.92v-0.64c-0.037-2.147-1.504-3.941-3.487-4.472l-0.033-0.008c-10.88-2.24-28.8-6.080-48.96-10.24-78.080-16.64-108.48-23.36-121.92-27.52-6.294 9.325-12.675 20.218-18.387 31.508l-0.813 1.772c-23.903 46.261-37.918 100.973-37.918 158.959 0 194.486 157.662 352.147 352.147 352.147 117.604 0 221.743-57.65 285.7-146.231l0.712-1.036c5.805-8.665 15.557-14.292 26.623-14.292 17.641 0 31.942 14.301 31.942 31.942 0 0.207-0.002 0.414-0.006 0.621v-0.031c-0.040 6.828-2.19 13.146-5.829 18.344l0.069-0.104c-76.351 106.601-199.814 175.242-339.31 175.242-229.812 0-416.112-186.3-416.112-416.112s186.3-416.112 416.112-416.112c229.812 0 416.112 186.3 416.112 416.112 0 28.157-2.797 55.661-8.127 82.249l0.445-2.659zM542.72 97.28c-9.307-0.874-20.125-1.373-31.060-1.373-98.017 0-186.677 40.058-250.504 104.696l-0.036 0.037c25.92 6.080 65.92 14.72 90.88 19.84 20.48 4.16 38.72 8 49.92 10.56 30.798 7.003 53.441 34.15 53.441 66.585 0 0.104 0 0.207-0.001 0.311v-0.016 8.96c0.001 0.104 0.002 0.227 0.002 0.351 0 5.651-1.546 10.94-4.239 15.469l0.077-0.14-35.2 61.76c-1.626 3.097-3.656 5.74-6.063 7.984l-0.017 0.016c-18.724 15.353-32.177 36.515-37.622 60.709l-0.138 0.731c-0.612 2.626-0.963 5.642-0.963 8.74 0 5.382 1.059 10.517 2.98 15.208l-0.097-0.268c3.651 5.011 5.841 11.289 5.841 18.080 0 1.752-0.146 3.469-0.426 5.141l0.025-0.181c-1.070 8.208-1.68 17.7-1.68 27.335 0 20.318 2.715 40.003 7.803 58.71l-0.362-1.564c19.2 59.84 100.16 86.4 129.28 87.040 26.434-1.977 50.812-8.969 72.792-20.027l-1.112 0.507c2.306-1.104 4.986-1.991 7.791-2.527l0.209-0.033c12.762-2.594 24.004-6.24 34.652-10.978l-1.052 0.418c2.88-2.24 11.52-16.32 13.44-55.040 4.8-38.72 7.68-89.92 7.68-90.24 0.732-6.526 3.021-12.403 6.482-17.406l-0.082 0.126c2.075-3.952 3.292-8.634 3.292-13.601 0-2.325-0.267-4.588-0.772-6.76l0.039 0.201c-6.301-25.173-19.325-46.713-37.048-63.293l-0.072-0.067c-2.848-2.477-5.286-5.322-7.268-8.483l-0.092-0.157-34.88-61.76c-1.141-1.929-2.121-4.157-2.825-6.505l-0.055-0.215c-2.26-7.096-3.562-15.259-3.562-23.725 0-13.29 3.209-25.83 8.894-36.888l-0.212 0.454c8.078-13.432 21.422-22.995 37.105-25.869l0.335-0.051c21.12-4.16 97.92-20.8 142.4-30.4-56.464-56.818-132.175-94.451-216.529-102.296l-1.391-0.104z" />
<glyph unicode="&#xe918;" glyph-name="kids" data-tags="kids" d="M737.28 128l-6.72-3.84 6.080 4.8c0.32-0.32 0.32-0.64 0.64-0.96zM920.32 528c-3.072 15.157-16.286 26.405-32.129 26.405-3.027 0-5.959-0.411-8.741-1.18l0.23 0.054c-13.331-3.77-22.952-15.79-23.040-30.070v-0.010c0.060-2.191 0.291-4.286 0.679-6.325l-0.039 0.245c4.239-20.506 6.666-44.072 6.666-68.206 0-101.561-42.981-193.083-111.746-257.368l-0.201-0.186c-25.908 43.418-64.43 76.986-110.47 96.078l-1.53 0.562c37.753 30.541 62.195 76.245 63.992 127.706l0.008 0.294v36.8c-0.046 37.341-21.41 69.682-52.574 85.508l-0.546 0.252-10.88 5.44v64c-0.053 17.652-14.348 31.947-31.995 32h-128.005c-88.352-0.033-159.967-71.648-160-159.997v-64.003c1.805-51.755 26.247-97.459 63.677-127.747l0.323-0.253c-47.934-19.796-86.707-53.718-112.053-96.529l-0.587-1.071c-68.828 64.462-111.715 155.9-111.715 257.354 0 194.563 157.725 352.288 352.288 352.288 117.615 0 221.769-57.638 285.756-146.208l0.711-1.034c5.805-8.665 15.557-14.292 26.623-14.292 17.641 0 31.942 14.301 31.942 31.942 0 0.207-0.002 0.414-0.006 0.621v-0.031c-0.040 6.828-2.19 13.146-5.829 18.344l0.069-0.104c-76.351 106.601-199.814 175.242-339.31 175.242-229.812 0-416.112-186.3-416.112-416.112s186.3-416.112 416.112-416.112c229.812 0 416.112 186.3 416.112 416.112 0 28.157-2.797 55.661-8.127 82.249l0.445-2.659zM542.72 97.28c-9.538-0.928-20.619-1.457-31.824-1.457-69.694 0-134.608 20.469-189.057 55.723l1.362-0.826c12.8 46.72 64.96 86.4 131.84 101.12 14.365 3.142 24.961 15.755 24.961 30.843 0 0.069 0 0.139-0.001 0.208v-0.011 9.28c-0.491 15.233-11.141 27.845-25.372 31.313l-0.228 0.047c-40.801 11.753-70.181 48.656-70.4 92.455v64.025c0.16 52.955 43.045 95.84 95.985 96h96.015v-32c0.020-24.873 14.162-46.437 34.84-57.111l0.36-0.169 11.2-5.44c10.513-5.284 17.6-15.984 17.6-28.34 0-0.049 0-0.099 0-0.148v0.008-36.8c-0.219-43.824-29.599-80.727-69.718-92.311l-0.682-0.169c-14.459-3.515-25.109-16.127-25.599-31.307l-0.001-0.053v-9.28c0-0.059-0.001-0.128-0.001-0.197 0-15.088 10.596-27.701 24.752-30.804l0.209-0.038c66.56-14.72 118.4-54.080 131.84-100.48-44.989-29.060-98.795-48.455-156.649-53.97l-1.431-0.11z" />
<glyph unicode="&#xe919;" glyph-name="order-return" data-tags="order-return" d="M896 320c17.652 0.053 31.947 14.348 32 31.995v288.005c0.002 0.114 0.003 0.248 0.003 0.382 0 2.729-0.47 5.348-1.333 7.78l0.050-0.163c-0.138 1.657-0.595 3.18-1.311 4.545l0.031-0.065c-1.64 3.978-3.912 7.378-6.725 10.245l0.005-0.005-160 192c-5.88 5.687-13.882 9.213-22.707 9.28h-448.013c-8.838-0.067-16.84-3.593-22.729-9.289l0.009 0.009-160-192c-2.808-2.862-5.080-6.262-6.643-10.030l-0.077-0.21c-0.685-1.3-1.142-2.823-1.277-4.437l-0.003-0.043c-0.813-2.27-1.283-4.889-1.283-7.618 0-0.134 0.001-0.268 0.003-0.402v0.020-544c0.107-35.303 28.697-63.893 63.99-64h704.010c35.303 0.107 63.893 28.697 64 63.99v96.010c0 17.673-14.327 32-32 32s-32-14.327-32-32v0-96h-704v512h704v-256c0.053-17.652 14.348-31.947 31.995-32h0.005zM195.84 672l105.28 128h178.88v-128zM544 672v128h178.88l105.28-128zM736 304c-0.069-61.828-50.172-111.931-111.993-112h-48.007c-17.673 0-32 14.327-32 32s14.327 32 32 32v0h48c26.51 0 48 21.49 48 48s-21.49 48-48 48v0h-226.56l41.28-41.28c5.785-5.828 9.359-13.857 9.359-22.72s-3.575-16.892-9.361-22.722l0.002 0.002c-5.849-5.739-13.871-9.28-22.72-9.28s-16.871 3.542-22.725 9.285l-95.995 95.995c-0.64 0.64-1.28 1.6-1.92 2.24-1.877 2.4-3.489 5.142-4.714 8.086l-0.086 0.234c-0.64 1.92-1.28 3.84-1.92 6.080-0.418 1.928-0.658 4.143-0.658 6.413 0 8.747 3.554 16.664 9.297 22.386l96.001 96.001c5.805 5.759 13.801 9.318 22.627 9.318 17.746 0 32.131-14.386 32.131-32.131 0-8.827-3.559-16.822-9.321-22.629l0.002 0.002-41.6-41.28h226.88c61.828-0.069 111.931-50.172 112-111.993v-0.007zM295.36 363.52c-3.373 3.945-5.753 8.835-6.694 14.221l-0.026 0.179c0.64-2.24 1.28-4.16 1.92-6.080 1.311-3.178 2.923-5.92 4.859-8.398l-0.059 0.078z" />
<glyph unicode="&#xe91a;" glyph-name="order-status" data-tags="order-status" d="M896 320c19.2 0 32 12.8 32 32v288c0 3.2 0 6.4 0 6.4s0 3.2 0 3.2-3.2 6.4-6.4 9.6l-160 192c-9.6 9.6-16 12.8-25.6 12.8h-448c-9.6 0-16-3.2-22.4-9.6l-160-192c-3.2-3.2-6.4-6.4-6.4-9.6 0 0 0-3.2 0-3.2-3.2-3.2-3.2-6.4-3.2-9.6v-544c0-35.2 28.8-64 64-64h704c35.2 0 64 28.8 64 64v96c0 19.2-12.8 32-32 32s-32-12.8-32-32v-96h-704v512h704v-256c0-19.2 12.8-32 32-32zM195.2 672l105.6 128h179.2v-128h-284.8zM544 672v128h179.2l105.6-128h-284.8zM512 256c-19.2 0-32 12.8-32 32v41.6c0 28.8 19.2 51.2 44.8 54.4 19.2 6.4 35.2 25.6 35.2 44.8 0 25.6-22.4 48-48 48 0 0 0 0 0 0-25.6 0-48-22.4-48-48 0-19.2-12.8-32-32-32s-32 12.8-32 32c0 60.8 51.2 112 112 112 0 0 0 0 0 0 60.8 0 112-51.2 112-112 0-51.2-32-92.8-80-108.8v-35.2c0-16-12.8-28.8-32-28.8zM540.8 323.2c0 0 0 0 0 0s0 0 0 0zM544 192c0-17.673-14.327-32-32-32s-32 14.327-32 32c0 17.673 14.327 32 32 32s32-14.327 32-32z" />
<glyph unicode="&#xe91b;" glyph-name="account-info" data-tags="account-info" d="M905.6 300.8c-12.8 32-38.4 51.2-73.6 51.2 0 0-96 0-96 0-35.2 0-76.8-12.8-89.6-48-3.2-3.2-6.4-9.6-6.4-16h-198.4c-16 0-35.2-6.4-44.8-19.2l-54.4-54.4c-12.8-12.8-12.8-32 0-44.8l54.4-54.4c12.8-12.8 28.8-19.2 44.8-19.2h70.4c19.2 0 32 12.8 32 32s-12.8 32-32 32h-64l-35.2 32 35.2 32h224c9.6 0 16 6.4 19.2 16 3.2 12.8 6.4 22.4 12.8 35.2 0 6.4 22.4 12.8 32 12.8 0 0 0 0 0 0h96c9.6 0 9.6-6.4 12.8-12.8 9.6-19.2 19.2-51.2 19.2-83.2s-9.6-64-19.2-83.2c-3.2-9.6-3.2-12.8-12.8-12.8 0 0 0 0 0 0h-105.6c-12.8 0-25.6 9.6-28.8 19.2-3.2 6.4-6.4 16-6.4 25.6-3.2 16-22.4 28.8-38.4 25.6s-25.6-19.2-22.4-38.4c3.2-16 6.4-32 9.6-41.6 12.8-32 35.2-51.2 70.4-51.2 0 0 121.6 0 121.6 0 35.2 0 57.6 19.2 73.6 51.2 12.8 25.6 22.4 67.2 22.4 108.8s-12.8 80-22.4 105.6zM800 192c0-17.673-14.327-32-32-32s-32 14.327-32 32c0 17.673 14.327 32 32 32s32-14.327 32-32zM512 864c-134.4 0-240-108.8-240-240 0-76.8 38.4-147.2 96-192-102.4-22.4-169.6-67.2-204.8-96-44.8-38.4-67.2-86.4-67.2-144v-64c0-54.4 41.6-96 96-96h96c16 0 32 12.8 32 32 0 0 0 0 0 0 0 16-16 32-32 32h-96c-16 0-32 16-32 32v64c0 38.4 16 70.4 44.8 96 32 28.8 128 96 304 96h6.4c60.8 0 112-9.6 153.6-19.2 3.2 0 6.4 0 9.6 0 9.6 0 19.2 3.2 25.6 9.6s9.6 12.8 9.6 22.4c0 12.8-9.6 25.6-22.4 32-9.6 3.2-22.4 6.4-28.8 6.4 57.6 44.8 96 112 96 192-6.4 131.2-112 236.8-246.4 236.8v0zM512 448c-96 0-176 80-176 176 0 99.2 80 176 176 176s176-80 176-176c0-96-80-176-176-176v0z" />
<glyph unicode="&#xe91c;" glyph-name="address-book" data-tags="address-book" d="M328.32 235.078c5.871-6.436 14.293-10.458 23.655-10.458 8.313 0 15.886 3.172 21.573 8.372l-0.025-0.022c34.421 34.048 81.775 55.082 134.042 55.082 1.559 0 3.114-0.019 4.665-0.056l-0.23 0.004c1.315 0.033 2.863 0.051 4.416 0.051 52.271 0 99.629-21.038 134.068-55.108l-0.017 0.017c5.696-5.31 13.365-8.569 21.794-8.569 17.673 0 32 14.327 32 32 0 9.479-4.121 17.995-10.669 23.854l-0.031 0.027c-29.885 28.365-66.554 49.882-107.306 61.855l-1.871 0.471c33.774 23.383 55.616 61.925 55.616 105.568 0 70.692-57.308 128-128 128s-128-57.308-128-128c0-43.643 21.842-82.185 55.192-105.29l0.424-0.278c-42.624-12.445-79.293-33.961-109.294-62.436l0.116 0.109c-6.432-5.874-10.451-14.296-10.451-23.657 0-8.307 3.165-15.874 8.355-21.562l-0.023 0.025zM512 512c35.346 0 64-28.654 64-64s-28.654-64-64-64c-35.346 0-64 28.654-64 64v0c0.036 35.332 28.668 63.964 63.997 64h0.003zM919.36 469.642l-336.96 365.12c-17.985 18.086-42.885 29.28-70.4 29.28s-52.415-11.194-70.395-29.276l-0.005-0.005-336.96-365.12c-5.307-5.685-8.565-13.342-8.565-21.76 0-17.632 14.293-31.925 31.925-31.925 9.214 0 17.516 3.903 23.343 10.146l0.017 0.019 40.64 43.84v-342c0-0.038 0-0.083 0-0.128 0-52.949 42.923-95.872 95.872-95.872 0.045 0 0.090 0 0.135 0h447.993c0.038 0 0.083 0 0.128 0 52.949 0 95.872 42.923 95.872 95.872 0 0.045 0 0.090 0 0.135v-0.007 32c0 17.673-14.327 32-32 32s-32-14.327-32-32v0-32c-0.053-17.652-14.348-31.947-31.995-32h-448.005c-17.652 0.053-31.947 14.348-32 31.995v411.445l232.64 251.84c5.933 6.076 14.207 9.844 23.36 9.844s17.427-3.768 23.354-9.837l0.006-0.006 232.64-251.84v-219.44c0-17.673 14.327-32 32-32s32 14.327 32 32v0 150l40.64-43.84c5.82-6.305 14.126-10.24 23.351-10.24 8.434 0 16.1 3.289 21.785 8.655l-0.015-0.014c6.273 5.838 10.185 14.141 10.185 23.358 0 8.422-3.266 16.082-8.602 21.78l0.016-0.018z" />
<glyph unicode="&#xe91d;" glyph-name="info" data-tags="info" d="M544.499 639.501c0-17.949-14.55-32.499-32.499-32.499s-32.499 14.55-32.499 32.499c0 17.949 14.55 32.499 32.499 32.499s32.499-14.55 32.499-32.499zM806.157 742.157c-75.281 75.281-179.281 121.844-294.157 121.844-229.751 0-416.001-186.25-416.001-416.001 0-114.875 46.562-218.876 121.844-294.157v0c75.305-75.282 179.325-121.844 294.22-121.844 79.514 0 153.82 22.3 217.004 60.988l-1.819-1.036c9.452 5.797 15.662 16.072 15.662 27.798 0 17.95-14.551 32.501-32.501 32.501-6.223 0-12.038-1.749-16.98-4.783l0.141 0.081c-52.577-32.628-116.364-51.967-184.668-51.967-195.564 0-354.099 158.536-354.099 354.099s158.536 354.099 354.099 354.099c195.564 0 354.099-158.536 354.099-354.099 0-73.238-22.234-141.283-60.321-197.753l0.8 1.258c-3.434-5.073-5.482-11.329-5.482-18.062 0-17.949 14.55-32.499 32.499-32.499 11.215 0 21.103 5.681 26.944 14.322l0.073 0.115c44.146 64.936 70.483 145.074 70.483 231.364 0 114.741-46.568 218.605-121.836 293.723l-0.007 0.007zM512 544c-17.949 0-32.499-14.55-32.499-32.499v0-287.002c0-17.949 14.55-32.499 32.499-32.499s32.499 14.55 32.499 32.499v0 287.002c0 17.949-14.55 32.499-32.499 32.499v0z" />
<glyph unicode="&#xe91e;" glyph-name="question" data-tags="question" d="M512 224c-17.673 0-32 14.327-32 32s14.327 32 32 32c17.673 0 32-14.327 32-32v0c0-17.673-14.327-32-32-32v0zM542.874 358.624v43.642c59.126 15.422 102.058 68.346 102.058 131.297 0 74.826-60.659 135.485-135.485 135.485-36.721 0-70.031-14.609-94.433-38.332l0.032 0.031c-25.389-24.275-41.172-58.415-41.172-96.241 0-0.14 0-0.281 0.001-0.421v0.022c0-17.949 14.55-32.499 32.499-32.499s32.499 14.55 32.499 32.499v0c0 0.047 0 0.103 0 0.159 0 19.519 8.151 37.134 21.234 49.627l0.027 0.025c12.905 12.429 30.482 20.085 49.847 20.085 1.134 0 2.262-0.026 3.384-0.078l-0.159 0.006c38.099-0.854 68.658-31.941 68.658-70.166 0-33.671-23.712-61.804-55.349-68.612l-0.461-0.083c-27.721-6.020-48.179-30.343-48.179-59.445 0-0.062 0-0.125 0-0.187v0.010-46.822c0-17.949 14.55-32.499 32.499-32.499s32.499 14.55 32.499 32.499v0zM727.248 91.955c9.451 5.796 15.66 16.070 15.66 27.795 0 17.948-14.549 32.497-32.497 32.497-6.223 0-12.037-1.749-16.978-4.782l0.141 0.081c-52.577-32.628-116.364-51.967-184.668-51.967-195.564 0-354.099 158.536-354.099 354.099s158.536 354.099 354.099 354.099c195.564 0 354.099-158.536 354.099-354.099 0-73.238-22.234-141.283-60.321-197.753l0.8 1.258c-3.533-5.124-5.644-11.467-5.644-18.303 0-17.949 14.55-32.499 32.499-32.499 11.316 0 21.282 5.784 27.102 14.557l0.075 0.12c43.169 64.296 68.9 143.445 68.9 228.603 0 228.474-185.215 413.69-413.69 413.69s-413.69-185.215-413.69-413.69c0-228.474 185.215-413.69 413.69-413.69 79.294 0 153.378 22.309 216.316 60.993l-1.796-1.027z" />
<glyph unicode="&#xe91f;" glyph-name="email" data-tags="email" d="M896 384c0.103-0.001 0.225-0.002 0.348-0.002 17.482 0 31.654 14.172 31.654 31.654 0 0.122-0.001 0.244-0.002 0.366v-0.019 224c-0.251 70.751-57.664 128.009-128.45 128.009-0.545 0-1.089-0.003-1.632-0.010l0.083 0.001h-572c-0.461 0.006-1.005 0.009-1.55 0.009-70.786 0-128.199-57.258-128.45-127.985v-384.024c-0.004-0.373-0.006-0.813-0.006-1.254 0-70.003 56.749-126.752 126.752-126.752 0.441 0 0.882 0.002 1.321 0.007l-0.067-0.001h576c0.373-0.004 0.813-0.006 1.254-0.006 70.003 0 126.752 56.749 126.752 126.752 0 0.441-0.002 0.882-0.007 1.321l0.001-0.067c0 17.673-14.327 32-32 32s-32-14.327-32-32v0c0.002-0.185 0.003-0.405 0.003-0.624 0-35.003-28.376-63.379-63.379-63.379-0.219 0-0.438 0.001-0.657 0.003h-575.967c-0.185-0.002-0.405-0.003-0.624-0.003-35.003 0-63.379 28.376-63.379 63.379 0 0.219 0.001 0.438 0.003 0.657v-0.033 384l283.35-184.461c19.474-12.391 43.203-19.747 68.65-19.747s49.176 7.357 69.176 20.060l-0.526-0.312 283.35 184.461v-224c-0.001-0.103-0.002-0.225-0.002-0.348 0-17.482 14.172-31.654 31.654-31.654 0.122 0 0.244 0.001 0.366 0.002h-0.019zM546.323 510.739c-9.736-6.195-21.6-9.874-34.323-9.874s-24.587 3.678-34.586 10.030l0.263-0.156-289.558 180.054c9.744 7.918 22.205 12.838 35.801 13.205l0.080 0.002h576c13.677-0.369 26.138-5.291 35.992-13.296l-0.11 0.087z" />
<glyph unicode="&#xe920;" glyph-name="add" data-tags="add" d="M543.802 63.805c0-0.019 0-0.040 0-0.062 0-17.53-14.211-31.741-31.741-31.741-17.508 0-31.705 14.175-31.741 31.675v352.643l-352.522-0.134c-0.001 0-0.003 0-0.004 0-17.556 0-31.789 14.232-31.789 31.789 0 8.819 3.591 16.799 9.391 22.558l0.002 0.002c5.767 5.675 13.666 9.199 22.388 9.261l352.534-0.115v352.64c0 0.018 0 0.039 0 0.061 0 17.463 14.156 31.619 31.619 31.619 0.021 0 0.043 0 0.064 0h-0.003c17.45-0.285 31.52-14.355 31.804-31.778v-352.421l352.515-0.122c0.232 0.006 0.506 0.010 0.78 0.010 17.496 0 31.68-14.184 31.68-31.68s-14.184-31.68-31.68-31.68c-0.274 0-0.548 0.003-0.82 0.010l0.040-0.001-352.528-0.134z" />
<glyph unicode="&#xe921;" glyph-name="close" data-tags="close" d="M262.822 153.846c-5.749-5.771-13.702-9.342-22.49-9.342-17.531 0-31.742 14.211-31.742 31.742 0 8.743 3.535 16.66 9.253 22.401l249.356 249.353-249.357 249.178c-5.76 5.754-9.322 13.706-9.322 22.49 0 17.556 14.232 31.789 31.789 31.789 0.042 0 0.084 0 0.126 0h-0.006c8.739-0.074 16.638-3.611 22.403-9.303l249.168-249.354 249.373 249.366c5.725 5.749 13.647 9.306 22.4 9.306s16.675-3.557 22.399-9.305l0.001-0.001c5.635-5.81 9.108-13.744 9.108-22.49s-3.473-16.679-9.116-22.498l-249.189-249.179 249.181-249.37c5.869-5.754 9.506-13.766 9.506-22.626 0-17.496-14.184-31.68-31.68-31.68-8.861 0-16.872 3.638-22.621 9.501l-249.362 249.195z" />
<glyph unicode="&#xe922;" glyph-name="delivery-truck" data-tags="delivery-truck" d="M824 445.76l-50.24 150.4c-8.796 25.648-32.673 43.768-60.791 43.84h-72.969v128c-0.053 17.652-14.348 31.947-31.995 32h-480.005c-17.652-0.053-31.947-14.348-32-31.995v-480.005c0-0.010 0-0.023 0-0.035 0-70.673 57.292-127.965 127.965-127.965 0.012 0 0.025 0 0.037 0h5.758c13.451-37.589 48.761-64 90.24-64s76.789 26.411 90.031 63.333l0.209 0.667h203.52c13.451-37.589 48.761-64 90.24-64s76.789 26.411 90.031 63.333l0.209 0.667h101.76c17.652 0.053 31.947 14.348 32 31.995v128.005c-0.031 62.2-44.384 114.031-103.187 125.626l-0.813 0.134zM640 576h72.96l42.56-128h-115.52zM320 160c-17.673 0-32 14.327-32 32s14.327 32 32 32c17.673 0 32-14.327 32-32v0c-0.053-17.652-14.348-31.947-31.995-32h-0.005zM704 160c-17.673 0-32 14.327-32 32s14.327 32 32 32c17.673 0 32-14.327 32-32v0c-0.053-17.652-14.348-31.947-31.995-32h-0.005zM864 224h-69.76c-13.451 37.589-48.761 64-90.24 64s-76.789-26.411-90.031-63.333l-0.209-0.667h-203.52c-13.451 37.589-48.761 64-90.24 64s-76.789-26.411-90.031-63.333l-0.209-0.667h-5.76c-35.303 0.107-63.893 28.697-64 63.99v448.010h416v-288h-320c-17.673 0-32-14.327-32-32s14.327-32 32-32v0h544c35.303-0.107 63.893-28.697 64-63.99v-0.010z" />
<glyph unicode="&#xe923;" glyph-name="delivery-truck-out" data-tags="delivery-truck-out" d="M824 413.76l-50.24 150.4c-8.796 25.648-32.673 43.768-60.791 43.84h-72.969v128c-0.053 17.652-14.348 31.947-31.995 32h-64.005c-17.673 0-32-14.327-32-32s14.327-32 32-32v0h32v-288h-320c-17.673 0-32-14.327-32-32s14.327-32 32-32v0h544c35.303-0.107 63.893-28.697 64-63.99v-96.010h-69.76c-13.451 37.589-48.761 64-90.24 64s-76.789-26.411-90.031-63.333l-0.209-0.667h-203.52c-13.451 37.589-48.761 64-90.24 64s-76.789-26.411-90.031-63.333l-0.209-0.667h-5.76c-35.303 0.107-63.893 28.697-64 63.99v448.010c17.673 0 32 14.327 32 32s-14.327 32-32 32v0h-32c-17.652-0.053-31.947-14.348-32-31.995v-480.005c0-0.010 0-0.023 0-0.035 0-70.673 57.292-127.965 127.965-127.965 0.012 0 0.025 0 0.037 0h5.758c13.451-37.589 48.761-64 90.24-64s76.789 26.411 90.031 63.333l0.209 0.667h203.52c13.451-37.589 48.761-64 90.24-64s76.789 26.411 90.031 63.333l0.209 0.667h101.76c17.652 0.053 31.947 14.348 32 31.995v128.005c-0.031 62.2-44.384 114.031-103.187 125.626l-0.813 0.134zM640 416v128h72.96l42.56-128zM320 128c-17.673 0-32 14.327-32 32s14.327 32 32 32c17.673 0 32-14.327 32-32v0c-0.053-17.652-14.348-31.947-31.995-32h-0.005zM704 128c-17.673 0-32 14.327-32 32s14.327 32 32 32c17.673 0 32-14.327 32-32v0c-0.053-17.652-14.348-31.947-31.995-32h-0.005zM470.72 681.36c-5.849-5.739-13.871-9.28-22.72-9.28s-16.871 3.542-22.725 9.285l0.005-0.005-41.28 41.6v-210.96c0-17.673-14.327-32-32-32s-32 14.327-32 32v0 210.96l-41.28-41.6c-5.824-5.87-13.894-9.504-22.813-9.504-17.746 0-32.131 14.386-32.131 32.131 0 8.919 3.634 16.989 9.502 22.811l96.002 96.002c2.862 2.808 6.262 5.080 10.030 6.643l0.21 0.077c1.3 0.685 2.823 1.142 4.437 1.277l0.043 0.003c2.393 0.761 5.145 1.2 8 1.2s5.607-0.439 8.193-1.252l-0.193 0.052c1.657-0.138 3.18-0.595 4.545-1.311l-0.065 0.031c3.978-1.64 7.378-3.912 10.245-6.725l95.995-95.995c5.785-5.828 9.359-13.857 9.359-22.72s-3.575-16.892-9.361-22.722l0.002 0.002z" />
<glyph unicode="&#xe924;" glyph-name="delivery-shipped" data-tags="delivery-shipped" d="M824 413.76l-50.24 150.4c-8.796 25.648-32.673 43.768-60.791 43.84h-72.969v128c-0.053 17.652-14.348 31.947-31.995 32h-128.005c-17.673 0-32-14.327-32-32s14.327-32 32-32v0h96v-288h-320c-17.673 0-32-14.327-32-32s14.327-32 32-32v0h544c35.303-0.107 63.893-28.697 64-63.99v-96.010h-69.76c-13.451 37.589-48.761 64-90.24 64s-76.789-26.411-90.031-63.333l-0.209-0.667h-203.52c-13.451 37.589-48.761 64-90.24 64s-76.789-26.411-90.031-63.333l-0.209-0.667h-5.76c-35.303 0.107-63.893 28.697-64 63.99v448.010h64c17.673 0 32 14.327 32 32s-14.327 32-32 32v0h-96c-17.652-0.053-31.947-14.348-32-31.995v-480.005c0-0.010 0-0.023 0-0.035 0-70.673 57.292-127.965 127.965-127.965 0.012 0 0.025 0 0.037 0h5.758c13.451-37.589 48.761-64 90.24-64s76.789 26.411 90.031 63.333l0.209 0.667h203.52c13.451-37.589 48.761-64 90.24-64s76.789 26.411 90.031 63.333l0.209 0.667h101.76c17.652 0.053 31.947 14.348 32 31.995v128.005c-0.031 62.2-44.384 114.031-103.187 125.626l-0.813 0.134zM640 416v128h72.96l42.56-128zM320 128c-17.673 0-32 14.327-32 32s14.327 32 32 32c17.673 0 32-14.327 32-32v0c-0.053-17.652-14.348-31.947-31.995-32h-0.005zM704 128c-17.673 0-32 14.327-32 32s14.327 32 32 32c17.673 0 32-14.327 32-32v0c-0.053-17.652-14.348-31.947-31.995-32h-0.005zM233.28 630.64c5.849 5.739 13.871 9.28 22.72 9.28s16.871-3.542 22.725-9.285l-0.005 0.005 41.28-41.6v210.96c0 17.673 14.327 32 32 32s32-14.327 32-32v0-210.96l41.28 41.6c5.805 5.759 13.801 9.318 22.627 9.318 17.746 0 32.131-14.386 32.131-32.131 0-8.827-3.559-16.822-9.321-22.629l-95.998-95.998c-2.862-2.808-6.262-5.080-10.030-6.643l-0.21-0.077c-1.3-0.685-2.823-1.142-4.437-1.277l-0.043-0.003c-2.393-0.761-5.145-1.2-8-1.2s-5.607 0.439-8.193 1.252l0.193-0.052c-1.657 0.138-3.18 0.595-4.545 1.311l0.065-0.031c-3.978 1.64-7.378 3.912-10.245 6.725l-95.995 95.995c-5.785 5.828-9.359 13.857-9.359 22.72s3.575 16.892 9.361 22.722l-0.002-0.002z" />
<glyph unicode="&#xe925;" glyph-name="delivery-onway" data-tags="delivery-onway" d="M96 576v-320c0-70.692 57.308-128 128-128v0h5.76c13.451-37.589 48.761-64 90.24-64s76.789 26.411 90.031 63.333l0.209 0.667h203.52c13.451-37.589 48.761-64 90.24-64s76.789 26.411 90.031 63.333l0.209 0.667h101.76c17.652 0.053 31.947 14.348 32 31.995v128.005c-0.031 62.2-44.384 114.031-103.187 125.626l-0.813 0.134-50.24 150.4c-8.796 25.648-32.673 43.768-60.791 43.84h-72.969v128c0 17.673-14.327 32-32 32v0 0c-17.673 0-32-14.327-32-32v0-320h-320c-17.673 0-32-14.327-32-32s14.327-32 32-32v0h544c35.303-0.107 63.893-28.697 64-63.99v-96.010h-69.76c-13.451 37.589-48.761 64-90.24 64s-76.789-26.411-90.031-63.333l-0.209-0.667h-203.52c-13.451 37.589-48.761 64-90.24 64s-76.789-26.411-90.031-63.333l-0.209-0.667h-5.76c-35.303 0.107-63.893 28.697-64 63.99v320.010c0 17.673-14.327 32-32 32v0 0c-17.673 0-32-14.327-32-32v0zM640 416v128h72.96l42.56-128zM320 128c-17.673 0-32 14.327-32 32s14.327 32 32 32c17.673 0 32-14.327 32-32v0c-0.053-17.652-14.348-31.947-31.995-32h-0.005zM704 128c-17.673 0-32 14.327-32 32s14.327 32 32 32c17.673 0 32-14.327 32-32v0c-0.053-17.652-14.348-31.947-31.995-32h-0.005zM361.36 585.36c-5.739 5.849-9.28 13.871-9.28 22.72s3.542 16.871 9.285 22.725l-0.005-0.005 41.6 41.28h-274.88c-17.673 0-32 14.327-32 32s14.327 32 32 32v0h274.88l-41.6 41.28c-5.759 5.805-9.318 13.801-9.318 22.627 0 17.746 14.386 32.131 32.131 32.131 8.827 0 16.822-3.559 22.629-9.321l95.998-95.998c2.808-2.862 5.080-6.262 6.643-10.030l0.077-0.21c0.685-1.3 1.142-2.823 1.277-4.437l0.003-0.043c0.761-2.393 1.2-5.145 1.2-8s-0.439-5.607-1.252-8.193l0.052 0.193c-0.138-1.657-0.595-3.18-1.311-4.545l0.031 0.065c-1.64-3.978-3.912-7.378-6.725-10.245l-95.995-95.995c-5.828-5.785-13.857-9.359-22.72-9.359s-16.892 3.575-22.722 9.361l0.002-0.002z" />
<glyph unicode="&#xe926;" glyph-name="delivery-arrived" data-tags="delivery-arrived" d="M218.515 564.358c-0.010 0-0.022 0-0.034 0-8.825 0-16.814 3.584-22.589 9.375l-90.516 90.516c-5.998 5.823-9.72 13.962-9.72 22.97 0 17.673 14.327 32 32 32 9.007 0 17.145-3.721 22.961-9.711l67.899-67.909 181.018 181.024c5.749 5.558 13.59 8.983 22.231 8.983 17.673 0 32-14.327 32-32 0-8.641-3.425-16.482-8.991-22.24l-203.633-203.633c-5.775-5.792-13.763-9.376-22.587-9.376-0.013 0-0.026 0-0.039 0h0.002zM824 413.76l-50.24 150.4c-8.796 25.648-32.673 43.768-60.791 43.84h-72.969v128c-0.053 17.652-14.348 31.947-31.995 32h-96.005c-17.673 0-32-14.327-32-32s14.327-32 32-32v0h64v-288h-320c-17.673 0-32-14.327-32-32s14.327-32 32-32v0h544c35.303-0.107 63.893-28.697 64-63.99v-96.010h-69.76c-13.451 37.589-48.761 64-90.24 64s-76.789-26.411-90.031-63.333l-0.209-0.667h-203.52c-13.451 37.589-48.761 64-90.24 64s-76.789-26.411-90.031-63.333l-0.209-0.667h-5.76c-35.303 0.107-63.893 28.697-64 63.99v288.010c0 17.673-14.327 32-32 32s-32-14.327-32-32v0-288c0-0.010 0-0.023 0-0.035 0-70.673 57.292-127.965 127.965-127.965 0.012 0 0.025 0 0.037 0h5.758c13.451-37.589 48.761-64 90.24-64s76.789 26.411 90.031 63.333l0.209 0.667h203.52c13.451-37.589 48.761-64 90.24-64s76.789 26.411 90.031 63.333l0.209 0.667h101.76c17.652 0.053 31.947 14.348 32 31.995v128.005c-0.031 62.2-44.384 114.031-103.187 125.626l-0.813 0.134zM640 416v128h72.96l42.56-128zM320 128c-17.673 0-32 14.327-32 32s14.327 32 32 32c17.673 0 32-14.327 32-32v0c-0.053-17.652-14.348-31.947-31.995-32h-0.005zM704 128c-17.673 0-32 14.327-32 32s14.327 32 32 32c17.673 0 32-14.327 32-32v0c-0.053-17.652-14.348-31.947-31.995-32h-0.005z" />
<glyph unicode="&#xe927;" glyph-name="doc" data-tags="doc" d="M704 864c70.39-0.746 127.254-57.609 127.999-127.929l0.001-0.071v-352c0-17.673-14.327-32-32-32s-32 14.327-32 32v0 352c-0.447 35.165-28.835 63.553-63.958 64h-384.042c-35.166-0.445-63.555-28.834-64-63.958v-576.042c0.447-35.165 28.835-63.553 63.958-64h0.042l137.44-1.027 246.56 1.027c33.789 3.622 60.378 30.211 63.972 63.684l0.028 0.316v64c0 17.673 14.327 32 32 32s32-14.327 32-32v0-64c-0.746-70.39-57.609-127.254-127.929-127.999l-0.071-0.001h-384c-70.39 0.746-127.254 57.609-127.999 127.929l-0.001 0.071v576c0.746 70.39 57.609 127.254 127.929 127.999l0.071 0.001zM672 608h-320c-17.673 0-32 14.327-32 32s14.327 32 32 32v0h320c17.673 0 32-14.327 32-32s-14.327-32-32-32v0zM672 480h-320c-17.673 0-32 14.327-32 32s14.327 32 32 32v0h320c17.673 0 32-14.327 32-32s-14.327-32-32-32v0zM512 352h-160c-17.673 0-32 14.327-32 32s14.327 32 32 32v0h160c17.673 0 32-14.327 32-32s-14.327-32-32-32v0z" />
<glyph unicode="&#xe928;" glyph-name="navigation" data-tags="navigation" d="M806.157 742.157c-75.281 75.281-179.281 121.844-294.157 121.844-229.751 0-416.001-186.25-416.001-416.001 0-114.875 46.562-218.876 121.844-294.157v0c75.305-75.282 179.326-121.843 294.222-121.843 79.515 0 153.821 22.3 217.005 60.988l-1.819-1.036c9.579 5.77 15.888 16.116 15.888 27.935 0 17.951-14.552 32.502-32.502 32.502-6.317 0-12.213-1.802-17.202-4.92l0.137 0.080c-52.577-32.628-116.364-51.967-184.668-51.967-195.564 0-354.099 158.536-354.099 354.099s158.536 354.099 354.099 354.099c195.564 0 354.099-158.536 354.099-354.099 0-73.238-22.234-141.283-60.321-197.753l0.8 1.258c-3.434-5.073-5.482-11.329-5.482-18.062 0-17.949 14.55-32.499 32.499-32.499 11.215 0 21.103 5.681 26.944 14.322l0.073 0.115c44.146 64.936 70.483 145.074 70.483 231.364 0 114.741-46.568 218.605-121.836 293.723l-0.007 0.007zM686.045 623.795c-5.875 5.835-13.97 9.442-22.907 9.442-4.711 0-9.187-1.002-13.229-2.804l0.207 0.082-360.752-157.61c-11.562-5.149-19.477-16.538-19.477-29.776 0-13.75 8.539-25.506 20.603-30.253l0.221-0.076 134.4-51.69 51.050-132.752c4.427-13.141 16.621-22.444 30.994-22.483h0.111c13.251 0.056 24.625 8.034 29.637 19.439l0.082 0.209 156 362.378c1.673 3.787 2.646 8.203 2.646 12.846 0 9.008-3.664 17.159-9.582 23.046l-0.001 0.001zM508.816 324.499c-9.92 25.792-20.48 53.264-28.234 73.418-3.373 8.608-10.058 15.292-18.445 18.589l-0.221 0.076-73.987 28.458 212.8 92.982z" />
<glyph unicode="&#xe929;" glyph-name="gift-card" data-tags="gift-card" d="M896 416c17.86 0 32.339 14.479 32.339 32.339v187.773c-0.084 71.411-57.95 129.278-129.352 129.363h-569.199c-71.412-0.084-129.279-57.952-129.363-129.355v-0.008l-4.426-348.112c-0.002-0.241-0.003-0.527-0.003-0.812 0-70.245 56.945-127.19 127.19-127.19 0.286 0 0.571 0.001 0.856 0.003h575.956c0.241-0.002 0.527-0.003 0.812-0.003 70.245 0 127.19 56.945 127.19 127.19 0 0.286-0.001 0.571-0.003 0.856v-0.044c0 17.673-14.327 32-32 32s-32-14.327-32-32v0c0.001-0.12 0.001-0.262 0.001-0.404 0-35.124-28.473-63.597-63.597-63.597-0.142 0-0.284 0-0.426 0.001h-575.978c-0.12-0.001-0.262-0.001-0.404-0.001-35.124 0-63.597 28.473-63.597 63.597 0 0.142 0 0.284 0.001 0.426v-0.022 192h90.24c13.255-37.95 48.745-64.686 90.48-64.686 13.513 0 26.372 2.803 38.026 7.86l-0.618-0.239c-12.624-28.513-31.88-52.112-55.89-69.569l-0.488-0.338c-8.509-5.911-14.009-15.635-14.009-26.643 0-17.861 14.479-32.34 32.34-32.34 6.852 0 13.207 2.131 18.437 5.767l-0.106-0.070c33.658 24.125 60.19 56.167 77.165 93.475l0.595 1.459c17.713-38.745 44.308-70.772 77.298-94.455l0.702-0.48c5.124-3.566 11.479-5.697 18.331-5.697 17.861 0 32.34 14.479 32.34 32.34 0 11.009-5.5 20.732-13.903 26.573l-0.106 0.070c-24.48 17.844-43.746 41.439-56.014 68.851l-0.434 1.085c11.056-4.837 23.94-7.652 37.482-7.652 41.736 0 77.227 26.738 90.279 64.018l0.204 0.67h241.648l-0.339-31.661c0-17.86 14.479-32.339 32.339-32.339v0zM341.702 480c-17.723 0.182-32.021 14.592-32.021 32.341s14.297 32.159 32.003 32.341h0.017c21.494-5.084 39.794-16.513 53.332-32.173l0.108-0.128c-13.669-15.777-31.956-27.222-52.75-32.24l-0.69-0.141zM530.88 480c-21.493 5.085-39.793 16.514-53.332 32.173l-0.108 0.128c13.669 15.777 31.956 27.222 52.75 32.24l0.69 0.141c0.096 0.001 0.209 0.002 0.322 0.002 17.862 0 32.342-14.48 32.342-32.342s-14.48-32.342-32.342-32.342c-0.113 0-0.226 0.001-0.339 0.002h0.017zM622.282 544c-13.666 38.143-49.351 65.006-91.359 65.363h-0.043c-37.547-3.931-70.471-21.137-94.52-46.77l-0.075-0.081c-24.123 25.715-57.048 42.922-93.943 46.796l-0.652 0.055c-42.078-0.358-77.791-27.215-91.293-64.681l-0.215-0.682h-90.182v96c-0.001 0.12-0.001 0.262-0.001 0.404 0 35.124 28.473 63.597 63.597 63.597 0.142 0 0.284 0 0.426-0.001h575.978c0.12 0.001 0.262 0.001 0.404 0.001 35.124 0 63.597-28.473 63.597-63.597 0-0.142 0-0.284-0.001-0.426v0.022-96z" />
<glyph unicode="&#xe92a;" glyph-name="review" data-tags="review" d="M512 32c0 0-0.001 0-0.001 0-229.75 0-416 186.25-416 416 0 114.875 46.563 218.876 121.844 294.157v0c75.279 75.514 179.402 122.237 294.437 122.237 229.602 0 415.731-186.129 415.731-415.731 0-86.369-26.338-166.587-71.42-233.060l0.932 1.457c-5.914-8.754-15.802-14.434-27.016-14.434-17.949 0-32.5 14.551-32.5 32.5 0 6.735 2.049 12.992 5.557 18.18l-0.073-0.115c36.3 54.145 57.935 120.778 57.935 192.463 0 192.557-156.099 348.656-348.656 348.656s-348.656-156.099-348.656-348.656c0-192.557 156.099-348.656 348.656-348.656 66.835 0 129.277 18.805 182.324 51.413l-1.513-0.865c4.847 3.030 10.735 4.827 17.043 4.827 17.949 0 32.499-14.55 32.499-32.499 0-11.811-6.3-22.15-15.723-27.84l-0.146-0.082c-61.292-37.651-135.523-59.952-214.963-59.952-0.102 0-0.205 0-0.307 0h0.016zM661.52 234.56c15.946 11.472 26.208 29.978 26.208 50.88 0 7.171-1.208 14.060-3.431 20.474l0.132-0.439-27.715 84.742 72.64 52.426c16.074 11.717 26.401 30.481 26.401 51.657 0 7.11-1.164 13.949-3.313 20.335l0.131-0.449c-8.155 25.885-31.943 44.329-60.039 44.329-0.193 0-0.387-0.001-0.58-0.003h-90.275l-27.478 84.55c-8.639 25.668-32.487 43.827-60.576 43.827-28.111 0-51.974-18.188-60.464-43.438l-0.131-0.45-27.459-84.48h-90.298c-0.163 0.002-0.356 0.002-0.549 0.002-28.093 0-51.88-18.44-59.915-43.877l-0.121-0.445c-2.020-5.941-3.185-12.784-3.185-19.899 0-21.184 10.334-39.955 26.236-51.546l0.182-0.126 72.64-52.419-27.715-84.749c-1.958-5.85-3.088-12.587-3.088-19.587 0-35.159 28.502-63.661 63.661-63.661 14.044 0 27.025 4.547 37.552 12.25l-0.179-0.125 72.858 52.602 72.858-52.602c10.312-7.689 23.306-12.31 37.378-12.31 14.195 0 27.292 4.702 37.819 12.634l-0.16-0.116zM426.166 493.514c0.231-0.003 0.503-0.005 0.775-0.005 27.65 0 51.148 17.778 59.687 42.528l0.133 0.444 26.88 82.666 26.88-82.723c8.681-25.162 32.16-42.914 59.785-42.914 0.277 0 0.554 0.002 0.83 0.005h87.638l-70.989-51.238c-16.063-11.609-26.394-30.288-26.394-51.38 0-7.066 1.159-13.861 3.298-20.205l-0.13 0.446 26.736-81.763-70.304 50.755c-10.358 7.547-23.337 12.074-37.373 12.074s-27.015-4.527-37.556-12.201l0.183 0.127-70.307-50.762 26.742 81.763c2.008 5.899 3.167 12.694 3.167 19.759 0 21.085-10.322 39.76-26.189 51.246l-0.184 0.127-70.979 51.238zM692.086 493.514v0z" />
<glyph unicode="&#xe92b;" glyph-name="discount" data-tags="discount" d="M806.157 742.157c-75.281 75.281-179.281 121.844-294.157 121.844-229.751 0-416.001-186.25-416.001-416.001 0-114.875 46.562-218.876 121.844-294.157v0c75.305-75.282 179.326-121.843 294.222-121.843 79.515 0 153.821 22.3 217.005 60.988l-1.819-1.036c9.579 5.77 15.888 16.116 15.888 27.935 0 17.951-14.552 32.502-32.502 32.502-6.317 0-12.213-1.802-17.202-4.92l0.137 0.080c-52.579-32.629-116.368-51.969-184.675-51.969-195.569 0-354.109 158.54-354.109 354.109s158.54 354.109 354.109 354.109c195.569 0 354.109-158.54 354.109-354.109 0-73.241-22.235-141.288-60.324-197.76l0.8 1.259c-3.434-5.073-5.482-11.329-5.482-18.062 0-17.949 14.55-32.499 32.499-32.499 11.215 0 21.103 5.681 26.944 14.322l0.073 0.115c44.146 64.936 70.483 145.074 70.483 231.364 0 114.741-46.568 218.605-121.836 293.723l-0.007 0.007zM411.738 256.909c4.471-2.468 9.8-3.92 15.469-3.92 12.281 0 22.97 6.816 28.491 16.872l0.085 0.169 175.68 324.998c2.462 4.468 3.911 9.793 3.911 15.456 0 17.949-14.55 32.499-32.499 32.499-12.286 0-22.979-6.817-28.504-16.875l-0.085-0.169-175.68-325.002c-2.457-4.464-3.903-9.785-3.903-15.442 0-12.283 6.814-22.975 16.867-28.502l0.168-0.085zM400 480c-44.183 0-80 35.817-80 80s35.817 80 80 80c44.183 0 80-35.817 80-80v0c-0.055-44.161-35.839-79.945-79.995-80h-0.005zM400 576c-8.837 0-16-7.163-16-16s7.163-16 16-16c8.837 0 16 7.163 16 16v0c0 8.837-7.163 16-16 16v0zM656 256c-44.183 0-80 35.817-80 80s35.817 80 80 80c44.183 0 80-35.817 80-80v0c-0.055-44.161-35.839-79.945-79.995-80h-0.005zM656 352c-8.837 0-16-7.163-16-16s7.163-16 16-16c8.837 0 16 7.163 16 16v0c0 8.837-7.163 16-16 16v0z" />
<glyph unicode="&#xe92c;" glyph-name="wallet" data-tags="wallet" d="M736 448c-53.019 0-96-42.981-96-96s42.981-96 96-96v0h128c0.55 0 31.459-0.026 32 0 0.541-0.026-0.55 0 0 0 0.104-0.001 0.227-0.002 0.351-0.002 17.48 0 31.651 14.171 31.651 31.651 0 0.123-0.001 0.247-0.002 0.37v-0.019 256c-0.091 41.672-21.279 78.375-53.446 100.008l-0.432 0.274-110.56 181.392c-5.807 9.404-16.056 15.576-27.747 15.576-6.345 0-12.265-1.818-17.268-4.961l0.135 0.079-81.539-50.56-36.774 62.224c-5.754 9.625-16.121 15.969-27.969 15.969-6.241 0-12.070-1.76-17.020-4.811l0.14 0.080-310.294-187.309-53.226 0.038c-17.673 0-32 14.327-32 32s14.327 32 32 32v0h64c17.673 0 32 14.327 32 32s-14.327 32-32 32v0l-62.502-2.624c-45.808-0.061-84.222-31.65-94.708-74.229l-0.14-0.67c-1.676-8.427-2.64-18.119-2.65-28.034v-534.442c-0.004-0.374-0.006-0.815-0.006-1.257 0-70.001 56.747-126.749 126.749-126.749 0.442 0 0.884 0.002 1.325 0.007l-0.067-0.001h576c56.559 0.025 104.495 36.913 121.087 87.941l0.253 0.901c1.098 3.122 1.733 6.722 1.733 10.47 0 17.949-14.55 32.499-32.499 32.499-14.339 0-26.51-9.287-30.825-22.174l-0.067-0.229c-7.9-26.121-31.532-44.903-59.625-45.407l-0.058-0.001h-576c-0.191-0.002-0.417-0.003-0.643-0.003-34.993 0-63.36 28.367-63.36 63.36 0 0.226 0.001 0.452 0.004 0.678v-0.034 448h640c0.191 0.002 0.417 0.003 0.643 0.003 34.993 0 63.36-28.367 63.36-63.36 0-0.226-0.001-0.452-0.004-0.678v0.034-96zM864 320h-128c-17.673 0-32 14.327-32 32s14.327 32 32 32v0h128zM372.509 672l188.64 114.643 34.605-58.56c1.239-3.032 2.814-5.648 4.724-7.977l-0.043 0.054 28.506-48.234zM704.57 671.968l-34.352 57.869 54.902 34.032 56.058-91.955z" />
<glyph unicode="&#xe92d;" glyph-name="copy" data-tags="copy" d="M699.622 688.474h-245.44c-0.096 0.001-0.209 0.002-0.323 0.002-17.952 0-32.506-14.553-32.506-32.506s14.553-32.506 32.506-32.506c0.113 0 0.227 0.001 0.34 0.002h245.423c0.096-0.001 0.209-0.002 0.323-0.002 17.952 0 32.506 14.553 32.506 32.506s-14.553 32.506-32.506 32.506c-0.113 0-0.227-0.001-0.34-0.002h0.017zM699.622 558.458h-245.44c-17.952 0-32.506-14.553-32.506-32.506s14.553-32.506 32.506-32.506h245.44c17.952 0 32.506 14.553 32.506 32.506s-14.553 32.506-32.506 32.506v0zM553.309 428.438h-99.139c-17.952 0-32.506-14.553-32.506-32.506s14.553-32.506 32.506-32.506v0h99.139c17.952 0 47.36 14.554 47.36 32.506s-29.408 32.506-47.36 32.506zM416 160h256c0.002-0.179 0.003-0.39 0.003-0.601 0-35.016-28.386-63.402-63.402-63.402-0.211 0-0.423 0.001-0.633 0.003h-319.968c-0.191-0.002-0.417-0.003-0.643-0.003-34.993 0-63.36 28.367-63.36 63.36 0 0.226 0.001 0.452 0.004 0.678v-0.034 448c-0.002 0.191-0.003 0.417-0.003 0.643 0 34.993 28.367 63.36 63.36 63.36 0.226 0 0.452-0.001 0.678-0.004h-0.034v-384c-0.188-2.656-0.295-5.756-0.295-8.88 0-33.364 12.225-63.873 32.44-87.291l-0.145 0.172c23.254-20.070 53.769-32.294 87.139-32.294 3.118 0 6.21 0.107 9.275 0.317l-0.414-0.023zM832 416c0.104-0.001 0.227-0.002 0.351-0.002 17.48 0 31.651 14.171 31.651 31.651 0 0.123-0.001 0.247-0.002 0.37v-0.019 288c0.004 0.377 0.006 0.822 0.006 1.267 0 69.996-56.743 126.739-126.739 126.739-0.445 0-0.89-0.002-1.335-0.007l0.068 0.001h-320c-0.346 0.003-0.755 0.005-1.164 0.005-70.053 0-126.842-56.789-126.842-126.842 0-0.409 0.002-0.818 0.006-1.226v0.062c-0.377 0.004-0.822 0.006-1.267 0.006-69.996 0-126.739-56.743-126.739-126.739 0-0.445 0.002-0.89 0.007-1.335l-0.001 0.068v-448c0-70.692 57.308-128 128-128v0h329.206c0.442-0.006 0.964-0.009 1.487-0.009 64.929 0 117.565 52.636 117.565 117.565 0 3.696-0.171 7.353-0.504 10.962l0.035-0.463c64.048 8.022 128.211 61.763 128.211 127.946 0 0.022 0 0.047 0 0.073 0 17.673-14.327 32-32 32-16.998 0-30.901-13.254-31.938-29.991l-0.005-0.091c0.002-0.205 0.004-0.448 0.004-0.691 0-35.188-27.812-63.881-62.653-65.296l-0.128-0.004h-321.28c-34.336 2.404-61.596 29.664-63.988 63.783l-0.012 0.217-0.038 448.358c-0.002 0.163-0.002 0.355-0.002 0.548 0 34.85 28.251 63.101 63.101 63.101 0.33 0 0.66-0.003 0.99-0.008l-0.050 0.001h320c0.191 0.002 0.417 0.003 0.643 0.003 34.993 0 63.36-28.367 63.36-63.36 0-0.226-0.001-0.452-0.004-0.678v0.034-288c-0.001-0.105-0.002-0.23-0.002-0.354 0-17.479 14.169-31.648 31.648-31.648 0.124 0 0.249 0.001 0.373 0.002h-0.019z" />
<glyph unicode="&#xe92e;" glyph-name="calendar" data-tags="calendar" d="M895.501 292c17.949 0 32.499 14.55 32.499 32.499v0 347.501c0.004 0.373 0.006 0.813 0.006 1.254 0 70.003-56.749 126.752-126.752 126.752-0.441 0-0.882-0.002-1.321-0.007l0.067 0.001h-64v32c0 17.673-14.327 32-32 32s-32-14.327-32-32v0-32h-128v32c0 17.673-14.327 32-32 32s-32-14.327-32-32v0-32h-128v32c0 17.673-14.327 32-32 32s-32-14.327-32-32v0-32h-64c-0.373 0.004-0.813 0.006-1.254 0.006-70.003 0-126.752-56.749-126.752-126.752 0-0.441 0.002-0.882 0.007-1.321l-0.001 0.067v-512c-0.004-0.373-0.006-0.813-0.006-1.254 0-70.003 56.749-126.752 126.752-126.752 0.441 0 0.882 0.002 1.321 0.007l-0.067-0.001h576c0.373-0.004 0.813-0.006 1.254-0.006 70.003 0 126.752 56.749 126.752 126.752 0 0.441-0.002 0.882-0.007 1.321l0.001-0.067c0 17.673-14.327 32-32 32s-32-14.327-32-32v0c0.002-0.185 0.003-0.405 0.003-0.624 0-35.003-28.376-63.379-63.379-63.379-0.219 0-0.438 0.001-0.657 0.003h-575.967c-0.185-0.002-0.405-0.003-0.624-0.003-35.003 0-63.379 28.376-63.379 63.379 0 0.219 0.001 0.438 0.003 0.657v-0.033 512c-0.002 0.185-0.003 0.405-0.003 0.624 0 35.003 28.376 63.379 63.379 63.379 0.219 0 0.438-0.001 0.657-0.003h63.967v-32c0-17.673 14.327-32 32-32s32 14.327 32 32v0 32h128v-32c0-17.673 14.327-32 32-32s32 14.327 32 32v0 32h128v-32c0-17.673 14.327-32 32-32s32 14.327 32 32v0 32h64c0.185 0.002 0.405 0.003 0.624 0.003 35.003 0 63.379-28.376 63.379-63.379 0-0.219-0.001-0.438-0.003-0.657v0.033l-0.998-347.501c0-0.001 0-0.002 0-0.003 0-17.947 14.549-32.496 32.496-32.496 0.001 0 0.002 0 0.003 0v0zM784 544c0-17.673-14.327-32-32-32s-32 14.327-32 32c0 17.673 14.327 32 32 32s32-14.327 32-32zM624 544c0-17.673-14.327-32-32-32s-32 14.327-32 32c0 17.673 14.327 32 32 32s32-14.327 32-32zM464 544c0-17.673-14.327-32-32-32s-32 14.327-32 32c0 17.673 14.327 32 32 32s32-14.327 32-32zM304 544c0-17.673-14.327-32-32-32s-32 14.327-32 32c0 17.673 14.327 32 32 32s32-14.327 32-32zM784 384c0-17.673-14.327-32-32-32s-32 14.327-32 32c0 17.673 14.327 32 32 32s32-14.327 32-32zM624 384c0-17.673-14.327-32-32-32s-32 14.327-32 32c0 17.673 14.327 32 32 32s32-14.327 32-32zM464 384c0-17.673-14.327-32-32-32s-32 14.327-32 32c0 17.673 14.327 32 32 32s32-14.327 32-32zM304 384c0-17.673-14.327-32-32-32s-32 14.327-32 32c0 17.673 14.327 32 32 32s32-14.327 32-32zM624 224c0-17.673-14.327-32-32-32s-32 14.327-32 32c0 17.673 14.327 32 32 32s32-14.327 32-32zM464 224c0-17.673-14.327-32-32-32s-32 14.327-32 32c0 17.673 14.327 32 32 32s32-14.327 32-32zM304 224c0-17.673-14.327-32-32-32s-32 14.327-32 32c0 17.673 14.327 32 32 32s32-14.327 32-32z" />
<glyph unicode="&#xe92f;" glyph-name="coin" data-tags="coin" d="M672 384v-64c0-54.4-41.6-96-96-96h-32v-32c0-16-16-32-32-32s-32 16-32 32v32h-32c-54.4 0-96 41.6-96 96 0 16 16 32 32 32s32-16 32-32 16-32 32-32h128c16 0 32 16 32 32v64c0 16-16 32-32 32h-128c-54.4 0-96 41.6-96 96v64c0 54.4 41.6 96 96 96h32v32c0 16 16 32 32 32s32-16 32-32v-32h32c54.4 0 96-41.6 96-96 0-16-16-32-32-32s-32 16-32 32-16 32-32 32h-128c-16 0-32-16-32-32v-64c0-16 16-32 32-32h128c54.4 0 96-41.6 96-96zM726.4 92.8c16 9.6 19.2 28.8 9.6 44.8s-28.8 19.2-44.8 9.6c-51.2-32-115.2-51.2-179.2-51.2-192 0-352 160-352 352s160 352 352 352 352-160 352-352c0-70.4-19.2-137.6-60.8-195.2-9.6-16-6.4-35.2 9.6-44.8s35.2-6.4 44.8 9.6c44.8 70.4 70.4 150.4 70.4 230.4 0 112-44.8 214.4-121.6 294.4s-182.4 121.6-294.4 121.6-214.4-44.8-294.4-121.6-121.6-182.4-121.6-294.4 44.8-214.4 121.6-294.4 182.4-121.6 294.4-121.6c76.8 0 150.4 19.2 214.4 60.8z" />
<glyph unicode="&#xe930;" glyph-name="lock" data-tags="lock" d="M896 288c16 0 32 16 32 32v64c0 105.6-86.4 192-192 192h-32v96c0 105.6-86.4 192-192 192s-192-86.4-192-192v-96h-32c-105.6 0-192-86.4-192-192v-160c0-105.6 86.4-192 192-192h480c73.6 0 137.6 48 153.6 121.6 3.2 16-6.4 35.2-22.4 38.4-3.2 0-6.4 0-6.4 0-16 0-28.8-9.6-32-25.6-12.8-41.6-51.2-70.4-92.8-70.4h-480c-70.4 0-128 57.6-128 128v160c0 70.4 57.6 128 128 128h448c70.4 0 128-57.6 128-128v-64c0-16 16-32 32-32zM384 672c0 70.4 57.6 128 128 128s128-57.6 128-128v-96h-256v96zM544 320c0-17.673-14.327-32-32-32s-32 14.327-32 32c0 17.673 14.327 32 32 32s32-14.327 32-32zM416 320c0-17.673-14.327-32-32-32s-32 14.327-32 32c0 17.673 14.327 32 32 32s32-14.327 32-32zM672 320c0-17.673-14.327-32-32-32s-32 14.327-32 32c0 17.673 14.327 32 32 32s32-14.327 32-32z" />
<glyph unicode="&#xe931;" glyph-name="bill" data-tags="bill" d="M640 640h-32c-17.673 0-32-14.327-32-32s14.327-32 32-32v0h32c17.673 0 32 14.327 32 32s-14.327 32-32 32v0zM512 640h-128c-17.673 0-32-14.327-32-32s14.327-32 32-32v0h128c17.673 0 32 14.327 32 32s-14.327 32-32 32v0zM640 384h-32c-17.673 0-32-14.327-32-32s14.327-32 32-32v0h32c17.673 0 32 14.327 32 32s-14.327 32-32 32v0zM512 384h-128c-17.673 0-32-14.327-32-32s14.327-32 32-32v0h128c17.673 0 32 14.327 32 32s-14.327 32-32 32v0zM640 512h-32c-17.673 0-32-14.327-32-32s14.327-32 32-32v0h32c17.673 0 32 14.327 32 32s-14.327 32-32 32v0zM512 512h-128c-17.673 0-32-14.327-32-32s14.327-32 32-32v0h128c17.673 0 32 14.327 32 32s-14.327 32-32 32v0zM800 256c-0.45 17.489-14.511 31.55-31.958 31.999l-0.042 0.001c-0.103 0.001-0.225 0.002-0.348 0.002-17.482 0-31.654-14.172-31.654-31.654 0-0.122 0.001-0.244 0.002-0.366v0.019-160h-448v672c0 17.673 14.327 32 32 32v0h419.027c-2.104-7.399-3.314-15.896-3.314-24.676 0-2.578 0.104-5.131 0.309-7.656l-0.022 0.332v-352c0-17.673 14.327-32 32-32v0 0c17.673 0 32 14.327 32 32v0 192h96c17.673 0 32 14.327 32 32v0 125.005c0.006 0.404 0.009 0.881 0.009 1.358 0 20.811-6.467 40.112-17.502 56.002l0.213-0.324c-17.331 25.385-46.091 41.858-78.705 41.958h-512.015c-53.019 0-96-42.981-96-96v0-480c-0.373 0.004-0.813 0.006-1.254 0.006-70.003 0-126.752-56.749-126.752-126.752 0-0.441 0.002-0.882 0.007-1.321l-0.001 0.067c-0.005-0.415-0.008-0.905-0.008-1.397 0-69.925 56.686-126.611 126.611-126.611 0.491 0 0.981 0.003 1.471 0.008l-0.075-0.001h576zM832 800v0c17.673 0 32-14.327 32-32v0-96h-64v96c0 17.673 14.327 32 32 32v0zM224 96c-0.185-0.002-0.405-0.003-0.624-0.003-35.003 0-63.379 28.376-63.379 63.379 0 0.219 0.001 0.438 0.003 0.657v-0.033c-0.002 0.185-0.003 0.405-0.003 0.624 0 35.003 28.376 63.379 63.379 63.379 0.219 0 0.438-0.001 0.657-0.003h-0.033z" />
<glyph unicode="&#xe932;" glyph-name="scan-code" data-tags="scan-code" d="M896 672c-17.673 0-32 14.327-32 32v0 96h-96c-17.673 0-32 14.327-32 32s14.327 32 32 32v0h128c17.673 0 32-14.327 32-32v0-128c0-17.673-14.327-32-32-32v0zM128 672c-17.673 0-32 14.327-32 32v0 128c0 17.673 14.327 32 32 32v0h128c17.673 0 32-14.327 32-32s-14.327-32-32-32v0h-96v-96c0-17.673-14.327-32-32-32v0zM896 32h-128c-17.673 0-32 14.327-32 32s14.327 32 32 32v0h96v96c0 17.673 14.327 32 32 32s32-14.327 32-32v0-128c0-17.673-14.327-32-32-32v0zM256 32h-128c-17.673 0-32 14.327-32 32v0 128c0 17.673 14.327 32 32 32s32-14.327 32-32v0-96h96c17.673 0 32-14.327 32-32s-14.327-32-32-32v0zM928 384c-0.053-17.652-14.348-31.947-31.995-32h-768.005c-17.673 0-32 14.327-32 32s14.327 32 32 32v0h96v256c0 17.673 14.327 32 32 32s32-14.327 32-32v0-256h64v256c0 17.673 14.327 32 32 32s32-14.327 32-32v0-256h64v256c0 17.673 14.327 32 32 32s32-14.327 32-32v0-256h64v256c0 17.673 14.327 32 32 32s32-14.327 32-32v0-256h64v256c0 17.673 14.327 32 32 32s32-14.327 32-32v0-256h96c17.652-0.053 31.947-14.348 32-31.995v-0.005zM256 160c-17.673 0-32 14.327-32 32v0 64c0 17.673 14.327 32 32 32s32-14.327 32-32v0-64c0-17.673-14.327-32-32-32v0zM384 160c-17.673 0-32 14.327-32 32v0 64c0 17.673 14.327 32 32 32s32-14.327 32-32v0-64c0-17.673-14.327-32-32-32v0zM640 160c-17.673 0-32 14.327-32 32v0 64c0 17.673 14.327 32 32 32s32-14.327 32-32v0-64c0-17.673-14.327-32-32-32v0zM512 96c-17.673 0-32 14.327-32 32v0 128c0 17.673 14.327 32 32 32s32-14.327 32-32v0-128c0-17.673-14.327-32-32-32v0zM768 160c-17.673 0-32 14.327-32 32v0 64c0 17.673 14.327 32 32 32s32-14.327 32-32v0-64c0-17.673-14.327-32-32-32v0z" />
<glyph unicode="&#xe933;" glyph-name="bar-code" data-tags="bar-code" d="M896 96c-17.673 0-32 14.327-32 32v0 640c0 17.673 14.327 32 32 32s32-14.327 32-32v0-640c0-17.673-14.327-32-32-32v0zM512 96c-17.673 0-32 14.327-32 32v0 640c0 17.673 14.327 32 32 32s32-14.327 32-32v0-640c0-17.673-14.327-32-32-32v0zM128 96c-17.673 0-32 14.327-32 32v0 640c0 17.673 14.327 32 32 32s32-14.327 32-32v0-640c0-17.673-14.327-32-32-32v0zM260.125 352c-17.673 0-32 14.327-32 32v0 384c0 17.673 14.327 32 32 32s32-14.327 32-32v0-384c0-17.673-14.327-32-32-32v0zM260.125 160c-17.673 0-32 14.327-32 32v0 64c0 17.673 14.327 32 32 32s32-14.327 32-32v0-64c0-17.673-14.327-32-32-32v0zM384 352c-17.673 0-32 14.327-32 32v0 384c0 17.673 14.327 32 32 32s32-14.327 32-32v0-384c0-17.673-14.327-32-32-32v0zM384 160c-17.673 0-32 14.327-32 32v0 64c0 17.673 14.327 32 32 32s32-14.327 32-32v0-64c0-17.673-14.327-32-32-32v0zM640 352c-17.673 0-32 14.327-32 32v0 384c0 17.673 14.327 32 32 32s32-14.327 32-32v0-384c0-17.673-14.327-32-32-32v0zM640 160c-17.673 0-32 14.327-32 32v0 64c0 17.673 14.327 32 32 32s32-14.327 32-32v0-64c0-17.673-14.327-32-32-32v0zM763.875 352c-17.673 0-32 14.327-32 32v0 384c0 17.673 14.327 32 32 32s32-14.327 32-32v0-384c0-17.673-14.327-32-32-32v0zM763.875 160c-17.673 0-32 14.327-32 32v0 64c0 17.673 14.327 32 32 32s32-14.327 32-32v0-64c0-17.673-14.327-32-32-32v0z" />
<glyph unicode="&#xe934;" glyph-name="camera" data-tags="camera" d="M832 64h-640c-70.659 0.082-127.918 57.34-128 127.992v384.008c0.082 70.659 57.34 127.918 127.992 128h88.462c0.029 0 0.063 0 0.097 0 12.425 0 23.187 7.121 28.428 17.504l0.083 0.182 28.624 57.251c15.978 31.7 48.27 53.063 85.552 53.063 0.108 0 0.216 0 0.324-0.001h176.892c0.091 0 0.199 0 0.308 0 37.281 0 69.573-21.363 85.301-52.516l0.25-0.547 28.624-57.251c5.324-10.566 16.086-17.687 28.511-17.687 0.034 0 0.068 0 0.102 0h88.449c70.659-0.082 127.918-57.34 128-127.992v-224.008c0-17.673-14.327-32-32-32s-32 14.327-32 32v0 224c-0.036 35.332-28.668 63.964-63.997 64h-88.458c-0.091 0-0.199 0-0.308 0-37.281 0-69.573 21.363-85.301 52.516l-0.25 0.547-28.624 57.251c-5.324 10.566-16.086 17.687-28.511 17.687-0.034 0-0.068 0-0.102 0h-176.904c-0.029 0-0.063 0-0.097 0-12.425 0-23.187-7.121-28.428-17.504l-0.083-0.182-28.624-57.251c-15.978-31.7-48.27-53.063-85.552-53.063-0.108 0-0.216 0-0.324 0.001h-88.437c-35.332-0.036-63.964-28.668-64-63.997v-384.003c0.036-35.332 28.668-63.964 63.997-64h640.003c35.332 0.036 63.964 28.668 64 63.997v32.003c0 17.673 14.327 32 32 32s32-14.327 32-32v0-32c-0.082-70.659-57.34-127.918-127.992-128h-0.008zM512 192c-106.039 0-192 85.961-192 192s85.961 192 192 192c106.039 0 192-85.961 192-192v0c-0.12-105.99-86.010-191.88-191.989-192h-0.011zM512 512c-70.692 0-128-57.308-128-128s57.308-128 128-128c70.692 0 128 57.308 128 128v0c-0.082 70.659-57.34 127.918-127.992 128h-0.008z" />
<glyph unicode="&#xe935;" glyph-name="cash" data-tags="cash" d="M800 128h-576c-88.322 0.107-159.893 71.678-160 159.99v320.010c0.107 88.322 71.678 159.893 159.99 160h576.010c88.322-0.107 159.893-71.678 160-159.99v-160.010c0-17.673-14.327-32-32-32s-32 14.327-32 32v0 160c-0.060 52.995-43.005 95.94-95.994 96h-576.006c-52.995-0.060-95.94-43.005-96-95.994v-320.006c0.060-52.995 43.005-95.94 95.994-96h576.006c52.995 0.060 95.94 43.005 96 95.994v0.006c0 17.673 14.327 32 32 32s32-14.327 32-32v0c-0.107-88.322-71.678-159.893-159.99-160h-0.010zM512 288c-88.366 0-160 71.634-160 160s71.634 160 160 160c88.366 0 160-71.634 160-160v0c-0.107-88.322-71.678-159.893-159.99-160h-0.010zM512 544c-53.019 0-96-42.981-96-96s42.981-96 96-96c53.019 0 96 42.981 96 96v0c-0.060 52.995-43.005 95.94-95.994 96h-0.006zM800 448c0-17.673-14.327-32-32-32s-32 14.327-32 32c0 17.673 14.327 32 32 32s32-14.327 32-32zM288 448c0-17.673-14.327-32-32-32s-32 14.327-32 32c0 17.673 14.327 32 32 32s32-14.327 32-32z" />
<glyph unicode="&#xe936;" glyph-name="voucher" data-tags="voucher" d="M800 128c-17.673 0-32 14.327-32 32s14.327 32 32 32v0c52.995 0.060 95.94 43.005 96 95.994v49.116c-29.578 27.814-48 67.2-48 110.89s18.421 83.076 47.921 110.816l0.079 0.073v49.11c-0.060 52.995-43.005 95.94-95.994 96h-576.006c-52.995-0.060-95.94-43.005-96-95.994v-47.286c33.248-26.619 54.358-67.204 54.358-112.72s-21.11-86.101-54.072-112.499l-0.285-0.221v-47.28c0.060-52.995 43.005-95.94 95.994-96h416.006c17.673 0 32-14.327 32-32s-14.327-32-32-32v0h-416c-88.322 0.107-159.893 71.678-160 159.99v64.010c0 11.591 6.163 21.743 15.391 27.357l0.142 0.080c23.419 14.225 38.825 39.595 38.825 68.563s-15.406 54.338-38.471 68.363l-0.354 0.2c-9.369 5.694-15.532 15.846-15.533 27.437v0 64c0.107 88.322 71.678 159.893 159.99 160h576.010c88.322-0.107 159.893-71.678 160-159.99v-64.010c0-0.008 0-0.018 0-0.027 0-10.425-4.994-19.683-12.719-25.514l-0.081-0.058c-21.47-16.225-35.2-41.709-35.2-70.4s13.73-54.175 34.979-70.24l0.221-0.16c7.806-5.889 12.8-15.148 12.8-25.573 0-0.010 0-0.019 0-0.029v0.001-64c-0.107-88.322-71.678-159.893-159.99-160h-0.010zM255.968 288c-17.659 0.018-31.968 14.338-31.968 32 0 7.24 2.404 13.919 6.458 19.281l-0.058-0.081 192 256c5.9 7.807 15.167 12.8 25.6 12.8 17.673 0 32-14.327 32-32 0-7.24-2.404-13.919-6.458-19.28l0.058 0.080-192-256c-5.891-7.807-15.151-12.8-25.578-12.8-0.019 0-0.038 0-0.057 0h0.003zM672 704c0-17.673-14.327-32-32-32s-32 14.327-32 32c0 17.673 14.327 32 32 32s32-14.327 32-32zM672 576c0-17.673-14.327-32-32-32s-32 14.327-32 32c0 17.673 14.327 32 32 32s32-14.327 32-32zM672 448c0-17.673-14.327-32-32-32s-32 14.327-32 32c0 17.673 14.327 32 32 32s32-14.327 32-32zM672 320c0-17.673-14.327-32-32-32s-32 14.327-32 32c0 17.673 14.327 32 32 32s32-14.327 32-32zM608 160c0-17.673 14.327-32 32-32s32 14.327 32 32v0 32c0 17.673-14.327 32-32 32s-32-14.327-32-32v0zM480 352c0-17.673-14.327-32-32-32s-32 14.327-32 32c0 17.673 14.327 32 32 32s32-14.327 32-32zM288 544c0-17.673-14.327-32-32-32s-32 14.327-32 32c0 17.673 14.327 32 32 32s32-14.327 32-32z" />
<glyph unicode="&#xe937;" glyph-name="logout" data-tags="logout" d="M95.958 160.042v576c0.078 70.661 57.339 127.922 127.992 128h224.049c17.673 0 32-14.327 32-32s-14.327-32-32-32v0h-224.042c-35.329-0.042-63.958-28.671-64-63.996v-576.004c0.042-35.329 28.671-63.958 63.996-64h224.046c17.673 0 32-14.327 32-32s-14.327-32-32-32v0h-224.042c-70.661 0.078-127.922 57.339-128 127.992v0.008zM672 736v-64c0-17.673-14.327-32-32-32v0 0c-17.673 0-32 14.327-32 32v0 64c-0.107 35.303-28.697 63.893-63.99 64h-160.010c-17.673 0-32 14.327-32 32s14.327 32 32 32v0h160c70.654-0.096 127.904-57.346 128-127.991v-0.009zM640 256v0c17.673 0 32-14.327 32-32v0-64c-0.214-70.606-57.394-127.786-127.979-128h-192.021c-17.673 0-32 14.327-32 32s14.327 32 32 32v0h192c35.303 0.107 63.893 28.697 64 63.99v64.010c0 17.673 14.327 32 32 32v0zM739.75 291.84c-5.739 5.849-9.28 13.871-9.28 22.72s3.542 16.871 9.285 22.725l-0.005-0.005 79.091 78.771h-530.883c-17.673 0-32 14.327-32 32s14.327 32 32 32v0h530.88l-79.091 78.768c-5.87 5.824-9.504 13.894-9.504 22.813 0 17.746 14.386 32.131 32.131 32.131 8.919 0 16.989-3.634 22.811-9.502l133.493-133.493c5.784-5.829 9.358-13.857 9.358-22.72s-3.574-16.891-9.36-22.722l-133.486-133.486c-5.828-5.785-13.857-9.359-22.72-9.359s-16.892 3.575-22.722 9.361l0.002-0.002z" />
<glyph unicode="&#xe938;" glyph-name="desktop" data-tags="desktop" d="M896 512v192c-0.107 35.303-28.697 63.893-63.99 64h-640.010c-35.303-0.107-63.893-28.697-64-63.99v-384.010c0.107-35.303 28.697-63.893 63.99-64h640.010c35.303 0.107 63.893 28.697 64 63.99v32.010c0 17.673 14.327 32 32 32s32-14.327 32-32v0-32c-0.096-70.654-57.346-127.904-127.991-128h-288.009v-64h128c17.673 0 32-14.327 32-32s-14.327-32-32-32v0h-320c-17.673 0-32 14.327-32 32s14.327 32 32 32v0h128v64h-288c-70.606 0.214-127.786 57.394-128 127.979v384.021c0 0.010 0 0.023 0 0.035 0 70.673 57.292 127.965 127.965 127.965 0.012 0 0.025 0 0.037 0h639.998c0.010 0 0.023 0 0.035 0 70.673 0 127.965-57.292 127.965-127.965 0-0.012 0-0.025 0-0.037v0.002-192c0-17.673-14.327-32-32-32s-32 14.327-32 32v0z" />
<glyph unicode="&#xe939;" glyph-name="mobile" data-tags="mobile" d="M768 288c0.112-0.001 0.244-0.002 0.377-0.002 17.466 0 31.626 14.159 31.626 31.626 0 0.132-0.001 0.265-0.002 0.397v-0.020 416c0.005 0.407 0.007 0.889 0.007 1.371 0 69.94-56.697 126.637-126.637 126.637-0.482 0-0.963-0.003-1.444-0.008l0.073 0.001h-320c-0.407 0.005-0.889 0.007-1.371 0.007-69.94 0-126.637-56.697-126.637-126.637 0-0.482 0.003-0.963 0.008-1.444l-0.001 0.073v-576c-0.005-0.407-0.007-0.889-0.007-1.371 0-69.94 56.697-126.637 126.637-126.637 0.482 0 0.963 0.003 1.444 0.008l-0.073-0.001h320c0.407-0.005 0.889-0.007 1.371-0.007 69.94 0 126.637 56.697 126.637 126.637 0 0.482-0.003 0.963-0.008 1.444l0.001-0.073c0 17.673-14.327 32-32 32s-32-14.327-32-32v0c0.002-0.204 0.004-0.444 0.004-0.685 0-34.97-28.349-63.318-63.318-63.318-0.241 0-0.482 0.001-0.722 0.004h-319.963c-0.204-0.002-0.444-0.004-0.685-0.004-34.97 0-63.318 28.349-63.318 63.318 0 0.241 0.001 0.482 0.004 0.722v-0.037 576c-0.002 0.204-0.004 0.444-0.004 0.685 0 34.97 28.349 63.318 63.318 63.318 0.241 0 0.482-0.001 0.722-0.004h319.963c0.204 0.002 0.444 0.004 0.685 0.004 34.97 0 63.318-28.349 63.318-63.318 0-0.241-0.001-0.482-0.004-0.722v0.037-416c-0.001-0.112-0.002-0.244-0.002-0.377 0-17.466 14.159-31.626 31.626-31.626 0.132 0 0.265 0.001 0.397 0.002h-0.020zM544 192c0-17.673-14.327-32-32-32s-32 14.327-32 32c0 17.673 14.327 32 32 32s32-14.327 32-32zM576 704c0.001 0.113 0.002 0.246 0.002 0.38 0 17.465-14.158 31.622-31.622 31.622-0.134 0-0.267-0.001-0.4-0.002h-63.98c-17.673 0-32-14.327-32-32s14.327-32 32-32v0h64c0.112-0.001 0.244-0.002 0.377-0.002 17.466 0 31.626 14.159 31.626 31.626 0 0.132-0.001 0.265-0.002 0.397v-0.020z" />
<glyph unicode="&#xe93a;" glyph-name="delivered" data-tags="delivered" d="M704 320h-320c-35.332 0.036-63.964 28.668-64 63.997v288.003c0.036 35.332 28.668 63.964 63.997 64h320.003c35.329-0.042 63.958-28.671 64-63.996v-288.004c-0.042-35.329-28.671-63.958-63.996-64h-0.004zM384 672v-288h320.032l-0.032 288zM608 608c-17.673 0-32 14.327-32 32v0 128c0 17.673-14.327 32-32 32s-32-14.327-32-32v0-128c0-17.673-14.327-32-32-32s-32 14.327-32 32v0 128c0 53.019 42.981 96 96 96s96-42.981 96-96v0-128c0-17.673-14.327-32-32-32v0zM896 192c-17.673 0-32 14.327-32 32v0c-0.060 52.995-43.005 95.94-95.994 96h-96.006c-17.673 0-32 14.327-32 32s14.327 32 32 32v0h96c88.322-0.107 159.893-71.678 160-159.99v-0.010c0-17.673-14.327-32-32-32v0zM896 32h-349.76c-0.053 0-0.116 0-0.179 0-74.151 0-141.747 28.068-192.743 74.158l0.25-0.222-224.989 202.502c-20.038 18.088-32.577 44.154-32.577 73.149 0 54.352 44.061 98.413 98.413 98.413 0.003 0 0.005 0 0.008 0h5.014c24.511-0.014 46.927-8.973 64.162-23.789l-0.13 0.109 210.467-184.47c11.188-9.843 25.959-15.85 42.133-15.85 0.014 0 0.028 0 0.042 0h123.889c17.673 0 32-14.327 32-32s-14.327-32-32-32v0h-123.891c-0.011 0-0.024 0-0.037 0-32.372 0-61.934 12.027-84.463 31.857l0.142-0.122-210.189 184.218c-5.924 5.005-13.647 8.048-22.080 8.048-0.016 0-0.031 0-0.047 0h-5.012c-0.008 0-0.018 0-0.027 0-19.002 0-34.406-15.404-34.406-34.406 0-10.139 4.386-19.254 11.363-25.551l225.028-202.542c39.464-35.672 92.033-57.501 149.701-57.501 0.056 0 0.111 0 0.167 0h349.752c17.673 0 32-14.327 32-32s-14.327-32-32-32v0z" />
<glyph unicode="&#xe93b;" glyph-name="faq" data-tags="faq" d="M800 384c-19.2 0-32 12.8-32 32v320c0 35.2-28.8 64-64 64h-384c-35.2 0-64-28.8-64-64v-320c0-19.2-12.8-32-32-32s-32 12.8-32 32v320c0 70.4 57.6 128 128 128h384c70.4 0 128-57.6 128-128v-320c0-19.2-12.8-32-32-32zM672 640h-320c-19.2 0-32 12.8-32 32s12.8 32 32 32h320c19.2 0 32-12.8 32-32s-12.8-32-32-32zM512 512h-160c-19.2 0-32 12.8-32 32s12.8 32 32 32h160c19.2 0 32-12.8 32-32s-12.8-32-32-32zM352 288c0-16-16-32-32-32h-32c-16 0-32-16-32-32v-32h32c16 0 32-16 32-32s-16-32-32-32h-32v-64c0-16-16-32-32-32s-32 16-32 32v160c0 54.4 41.6 96 96 96h32c16 0 32-16 32-32zM480 320c-54.4 0-96-41.6-96-96v-160c0-16 16-32 32-32s32 16 32 32v64h64v-64c0-16 16-32 32-32s32 16 32 32v160c0 54.4-41.6 96-96 96zM448 192v32c0 16 16 32 32 32s32-16 32-32v-32h-64zM800 153.6c0 0 0 0 0 0 0 3.2 0 3.2 0 6.4v64c0 54.4-41.6 96-96 96s-96-41.6-96-96v-96c0-54.4 41.6-96 96-96 38.4 0 70.4 22.4 86.4 54.4 6.4-6.4 9.6-12.8 9.6-22.4 0-16 16-32 32-32s32 16 32 32c0 41.6-25.6 76.8-64 89.6zM704 96c-16 0-32 16-32 32v96c0 16 16 32 32 32s32-16 32-32v-64c-16 0-32-16-32-32 0-12.8 6.4-22.4 16-28.8-6.4-3.2-9.6-3.2-16-3.2zM800 160v-6.4c0 0 0 0 0 0 0 3.2 0 3.2 0 6.4z" />
<glyph unicode="&#xe93c;" glyph-name="email-opened" data-tags="email-opened" d="M896 288c17.652 0.053 31.947 14.348 32 31.995v256.005c0.002 0.124 0.003 0.271 0.003 0.418 0 3.79-0.826 7.387-2.309 10.621l0.065-0.159c-0.050 1.596-0.646 3.043-1.608 4.169l0.008-0.009c-0.937 1.702-1.998 3.172-3.215 4.496l0.015-0.016c0 0.64-0.32 0.96-0.96 1.28-0.827 1.302-1.898 2.373-3.159 3.175l-0.041 0.025c-0.64 0.64-0.96 1.28-1.6 1.6l-115.2 86.4v144c-0.053 17.652-14.348 31.947-31.995 32h-512.005c-17.652-0.053-31.947-14.348-32-31.995v-144.005l-113.28-85.12-1.92-1.28c-0.64-0.32-0.96-0.96-1.6-1.6-1.302-0.827-2.373-1.898-3.175-3.159l-0.025-0.041c-0.64-0.32-0.96-0.64-0.96-1.28-1.202-1.308-2.263-2.778-3.141-4.363l-0.059-0.117c-0.954-1.117-1.55-2.564-1.6-4.15v-0.010c-1.417-3.075-2.243-6.672-2.243-10.462 0-0.147 0.001-0.294 0.004-0.441v0.022-416c0-0.010 0-0.023 0-0.035 0-70.673 57.292-127.965 127.965-127.965 0.012 0 0.025 0 0.037 0h575.998c0.010 0 0.023 0 0.035 0 70.673 0 127.965 57.292 127.965 127.965 0 0.012 0 0.025 0 0.037v-0.002c0 17.673-14.327 32-32 32s-32-14.327-32-32v0c-0.107-35.303-28.697-63.893-63.99-64h-576.010c-35.303 0.107-63.893 28.697-64 63.99v356.17l298.88-199.040c14.884-10.219 33.289-16.32 53.12-16.32s38.236 6.101 53.442 16.529l-0.322-0.209 298.88 199.040v-196.16c0.053-17.652 14.348-31.947 31.995-32h0.005zM224 608v-57.6l-40.64 27.2zM529.6 370.24c-4.955-3.309-11.047-5.28-17.6-5.28s-12.645 1.971-17.717 5.353l0.117-0.073-206.72 137.6c0.212 1.043 0.333 2.242 0.333 3.47 0 0.243-0.005 0.484-0.014 0.725l0.001-0.035v288h448v-288c-0.008-0.206-0.013-0.447-0.013-0.69 0-1.227 0.121-2.427 0.352-3.586l-0.019 0.116zM800 550.4v57.6l40.64-30.4z" />
<glyph unicode="&#xe93d;" glyph-name="birthday" data-tags="birthday" d="M896 96h-672v177.034c14.26-6.446 30.911-10.226 48.44-10.285h0.021c0.035 0 0.076 0 0.117 0 31.456 0 59.872 13.019 80.152 33.964l0.029 0.030c20.359-20.973 48.817-33.988 80.314-33.988 30.803 0 58.699 12.448 78.932 32.588l-0.004-0.004c20.229-20.139 48.127-32.589 78.932-32.589 31.5 0 59.959 13.017 80.292 33.966l0.027 0.028c20.307-20.974 48.722-33.994 80.177-33.994 0.042 0 0.085 0 0.127 0h-0.007c17.646 0.422 34.231 4.537 49.149 11.598l-0.739-0.315 0.042-50.032c0-17.673 14.327-32 32-32s32 14.327 32 32v0 160c0.004 0.372 0.006 0.811 0.006 1.251 0 70.005-56.75 126.755-126.755 126.755-0.44 0-0.879-0.002-1.318-0.007l0.067 0.001h-192v96c38.374 13.638 65.38 49.587 65.501 91.86v0.015c-1.134 25.394-10.549 48.392-25.588 66.565l0.151-0.188c-14.51 17.452-23.316 40.095-23.316 64.795 0 0.159 0 0.319 0.001 0.478v-0.025c-0.003 17.946-14.552 32.493-32.499 32.493-7.566 0-14.528-2.585-20.051-6.921l0.070 0.053c-16.804-13.72-31.738-28.474-45.181-44.52l-0.422-0.517c-27.759-29.477-45.626-68.544-48.138-111.733l-0.022-0.481c0.956-42.017 27.603-77.573 64.804-91.646l0.69-0.229v-96h-192c-0.373 0.004-0.813 0.006-1.254 0.006-70.003 0-126.752-56.749-126.752-126.752 0-0.441 0.002-0.882 0.007-1.321l-0.001 0.067v-288h-32c-17.673 0-32-14.327-32-32s14.327-32 32-32v0h768c17.673 0 32 14.327 32 32s-14.327 32-32 32v0zM508.973 766.131c6.573-14.008 13.72-26.006 21.884-37.215l-0.444 0.639c9.507-13.901 14.080-20.973 14.080-29.68-0.681-17.666-14.828-31.814-32.429-32.497l-0.064-0.002c-17.941 0.018-32.481 14.558-32.499 32.497v0.002c2.693 25.73 13.406 48.555 29.559 66.353l-0.087-0.097zM224.15 389.066c0.035 32.658 26.518 59.119 59.181 59.119 1.643 0 3.271-0.067 4.88-0.198l-0.211 0.014h448c1.661 0.168 3.589 0.263 5.54 0.263 32.16 0 58.255-25.968 58.46-58.080v-16.269c-1.21-25.747-22.378-46.163-48.315-46.163-0.042 0-0.085 0-0.127 0h0.007c-0.124-0.001-0.27-0.002-0.416-0.002-25.237 0-45.731 20.308-46.032 45.474v0.028c0 0.002 0 0.004 0 0.006 0 17.951-14.552 32.502-32.502 32.502-0.005 0-0.009 0-0.014 0h0.001c-0.458 0-0.902-0.051-1.35-0.070s-0.896 0.070-1.354 0.070c-0.001 0-0.002 0-0.003 0-17.947 0-32.496-14.549-32.496-32.496 0-0.001 0-0.002 0-0.003v0c-0.571-25.217-21.149-45.441-46.45-45.441s-45.878 20.224-46.449 45.388l-0.001 0.053c0 17.949-14.55 32.499-32.499 32.499s-32.499-14.55-32.499-32.499v0c-0.571-25.217-21.149-45.441-46.45-45.441s-45.878 20.224-46.449 45.388l-0.001 0.053c-0.002 17.948-14.551 32.497-32.499 32.499v0c-0.458 0-0.902-0.051-1.354-0.070s-0.893 0.070-1.35 0.070c-0.001 0-0.002 0-0.003 0-17.947 0-32.496-14.549-32.496-32.496 0-0.001 0-0.002 0-0.003v0c-0.301-25.194-20.795-45.503-46.032-45.503-0.146 0-0.292 0.001-0.438 0.002h0.022c-0.309-0.007-0.672-0.011-1.037-0.011-25.336 0-46.021 19.912-47.26 44.941l-0.004 0.111z" />
<glyph unicode="&#xe93e;" glyph-name="printer" data-tags="printer" d="M576 224h-128c-17.673 0-32-14.327-32-32s14.327-32 32-32v0h128c17.673 0 32 14.327 32 32s-14.327 32-32 32v0zM800.998 447.501c0-17.949-14.55-32.499-32.499-32.499s-32.499 14.55-32.499 32.499c0 17.949 14.55 32.499 32.499 32.499s32.499-14.55 32.499-32.499zM896 352c0.103-0.001 0.225-0.002 0.348-0.002 17.482 0 31.654 14.172 31.654 31.654 0 0.122-0.001 0.244-0.002 0.366v-0.019 96c0.004 0.373 0.006 0.813 0.006 1.254 0 70.003-56.749 126.752-126.752 126.752-0.441 0-0.882-0.002-1.321-0.007l0.067 0.001h-64v224c0.001 0.103 0.002 0.225 0.002 0.348 0 17.482-14.172 31.654-31.654 31.654-0.122 0-0.244-0.001-0.366-0.002h-383.981c-0.103 0.001-0.225 0.002-0.348 0.002-17.482 0-31.654-14.172-31.654-31.654 0-0.122 0.001-0.244 0.002-0.366v0.019-224h-64c-0.373 0.004-0.813 0.006-1.254 0.006-70.003 0-126.752-56.749-126.752-126.752 0-0.441 0.002-0.882 0.007-1.321l-0.001 0.067v-256c-0.004-0.373-0.006-0.813-0.006-1.254 0-70.003 56.749-126.752 126.752-126.752 0.441 0 0.882 0.002 1.321 0.007l-0.067-0.001h64v-32c-0.001-0.103-0.002-0.225-0.002-0.348 0-17.482 14.172-31.654 31.654-31.654 0.122 0 0.244 0.001 0.366 0.002h383.981c0.103-0.001 0.225-0.002 0.348-0.002 17.482 0 31.654 14.172 31.654 31.654 0 0.122-0.001 0.244-0.002 0.366v-0.019 32l62 0.998c0.71-0.014 1.547-0.022 2.385-0.022 70.272 0 127.278 56.799 127.615 126.992v0.032c0 17.673-14.327 32-32 32s-32-14.327-32-32v0c0.002-0.185 0.003-0.405 0.003-0.624 0-35.003-28.376-63.379-63.379-63.379-0.219 0-0.438 0.001-0.657 0.003h-63.967v128l31.501-0.499c17.949 0 32.499 14.55 32.499 32.499s-14.55 32.499-32.499 32.499l-511.501-0.499c-17.673 0-32-14.327-32-32s14.327-32 32-32v0h32v-128h-64c-0.185-0.002-0.405-0.003-0.624-0.003-35.003 0-63.379 28.376-63.379 63.379 0 0.219 0.001 0.438 0.003 0.657v-0.033 256c-0.002 0.185-0.003 0.405-0.003 0.624 0 35.003 28.376 63.379 63.379 63.379 0.219 0 0.438-0.001 0.657-0.003h575.967c0.185 0.002 0.405 0.003 0.624 0.003 35.003 0 63.379-28.376 63.379-63.379 0-0.219-0.001-0.438-0.003-0.657v0.033-96c-0.001-0.103-0.002-0.225-0.002-0.348 0-17.482 14.172-31.654 31.654-31.654 0.122 0 0.244 0.001 0.366 0.002h-0.019zM352 288h320v-192h-320zM672 608h-320v192h320z" />
<glyph unicode="&#xe93f;" glyph-name="view-doc" data-tags="view-doc" d="M416 32h-160c-70.662 0.077-127.924 57.338-128 127.993v576.007c0.077 70.662 57.338 127.924 127.993 128h416.007c70.662-0.077 127.924-57.338 128-127.993v-320.007c0-17.673-14.327-32-32-32s-32 14.327-32 32v0 320c-0.042 35.329-28.671 63.958-63.996 64h-416.004c-35.329-0.042-63.958-28.671-64-63.996v-576.004c0.042-35.329 28.671-63.958 63.996-64h160.004c17.673 0 32-14.327 32-32s-14.327-32-32-32v0zM640 608h-352c-17.673 0-32 14.327-32 32s14.327 32 32 32v0h352c17.673 0 32-14.327 32-32s-14.327-32-32-32v0zM640 480h-352c-17.673 0-32 14.327-32 32s14.327 32 32 32v0h352c17.673 0 32-14.327 32-32s-14.327-32-32-32v0zM480 352h-192c-17.673 0-32 14.327-32 32s14.327 32 32 32v0h192c17.673 0 32-14.327 32-32s-14.327-32-32-32v0zM672 32.483c-0.092 0-0.202 0-0.311 0-36.213 0-69.612 12.048-96.407 32.354l0.398-0.289-96.96 73.094c-18.261 11.483-30.219 31.524-30.219 54.358s11.958 42.875 29.954 54.203l0.265 0.156 96.96 73.094c26.503 20.021 60.005 32.067 96.32 32.067s69.817-12.046 96.726-32.361l-0.406 0.294 96.96-73.094c18.261-11.483 30.219-31.524 30.219-54.358s-11.958-42.875-29.954-54.203l-0.265-0.156-96.96-73.094c-26.405-20.017-59.812-32.064-96.032-32.064-0.101 0-0.202 0-0.303 0h0.016zM672 287.594c-0.055 0-0.12 0-0.184 0-21.734 0-41.781-7.227-57.867-19.409l0.24 0.174-98.314-74.118c-0.979-0.759-2.082-1.5-3.234-2.165l-0.142-0.075c1.294-0.74 2.397-1.481 3.444-2.29l-0.068 0.050 98.314-74.125c15.911-12.007 36.017-19.231 57.811-19.231s41.901 7.224 58.056 19.408l-0.245-0.177 98.314 74.125c0.979 0.759 2.082 1.5 3.234 2.165l0.142 0.075c-1.294 0.74-2.397 1.481-3.444 2.29l0.068-0.050-98.314 74.125c-15.865 12.005-35.927 19.229-57.677 19.229-0.047 0-0.094 0-0.142 0h0.007zM736 192c0-35.346-28.654-64-64-64s-64 28.654-64 64c0 35.346 28.654 64 64 64s64-28.654 64-64z" />
<glyph unicode="&#xe940;" glyph-name="happy" data-tags="happy" d="M705.376 506.499c-0.001 0-0.002 0-0.003 0-17.949 0-32.499 14.55-32.499 32.499 0 0.001 0 0.002 0 0.003v0c0 8.974-7.275 16.25-16.25 16.25s-16.25-7.275-16.25-16.25v0c0-17.949-14.55-32.499-32.499-32.499s-32.499 14.55-32.499 32.499v0c0.289 44.654 36.555 80.741 81.25 80.741s80.96-36.087 81.249-80.714v-0.027c0-0.001 0-0.002 0-0.003 0-17.949-14.55-32.499-32.499-32.499v0zM450.24 539.002c-0.289 44.654-36.555 80.741-81.25 80.741s-80.96-36.087-81.249-80.714v-0.027c0-17.949 14.55-32.499 32.499-32.499s32.499 14.55 32.499 32.499v0c0.129 8.878 7.355 16.025 16.251 16.025s16.123-7.147 16.251-16.013v-0.012c0-17.949 14.55-32.499 32.499-32.499s32.499 14.55 32.499 32.499v0zM727.238 91.962c9.452 5.796 15.663 16.072 15.663 27.798 0 17.949-14.551 32.5-32.5 32.5-6.223 0-12.037-1.749-16.978-4.782l0.141 0.081c-52.582-32.633-116.376-51.975-184.687-51.975-195.574 0-354.118 158.544-354.118 354.118s158.544 354.118 354.118 354.118c195.574 0 354.118-158.544 354.118-354.118 0-73.242-22.235-141.29-60.324-197.763l0.8 1.258c-3.434-5.073-5.481-11.329-5.481-18.062 0-17.95 14.551-32.501 32.501-32.501 11.216 0 21.105 5.681 26.946 14.323l0.073 0.115c43.168 64.294 68.898 143.439 68.898 228.594 0 228.466-185.208 413.674-413.674 413.674s-413.674-185.208-413.674-413.674c0-228.466 185.208-413.674 413.674-413.674 79.288 0 153.366 22.306 216.3 60.986l-1.796-1.027zM651.741 391.136c-10.544-0.001-19.912-5.036-25.833-12.832l-0.058-0.080c-29.55-28.222-69.676-45.591-113.859-45.591s-84.309 17.369-113.923 45.651l0.064-0.060c-5.99 7.861-15.358 12.882-25.898 12.882-17.935 0-32.474-14.539-32.474-32.474 0-9.233 3.853-17.566 10.040-23.479l0.012-0.012c41.414-41.697 98.777-67.507 162.17-67.507s120.756 25.81 162.157 67.494l0.013 0.013c6.218 5.927 10.085 14.274 10.085 23.523 0 17.936-14.54 32.477-32.477 32.477-0.010 0-0.019 0-0.029 0h0.001z" />
<glyph unicode="&#xe941;" glyph-name="filters" data-tags="filters" d="M800 704h-576c-17.673 0-32 14.327-32 32s14.327 32 32 32v0h576c17.673 0 32-14.327 32-32s-14.327-32-32-32v0zM544 416h-320c-17.673 0-32 14.327-32 32s14.327 32 32 32v0h320c17.673 0 32-14.327 32-32s-14.327-32-32-32v0zM352 128h-128c-17.673 0-32 14.327-32 32s14.327 32 32 32v0h128c17.673 0 32-14.327 32-32s-14.327-32-32-32v0z" />
<glyph unicode="&#xe942;" glyph-name="sort" data-tags="sort" d="M510.218 316.291c5.85 5.737 13.871 9.278 22.72 9.278s16.87-3.541 22.725-9.283l-0.005 0.005 78.768-79.091v498.8c0 17.673 14.327 32 32 32s32-14.327 32-32v0-498.8l78.771 79.091c5.824 5.87 13.894 9.504 22.813 9.504 17.746 0 32.131-14.386 32.131-32.131 0-8.919-3.634-16.989-9.502-22.811l-133.487-133.493c-5.829-5.784-13.857-9.358-22.72-9.358s-16.891 3.574-22.722 9.36l-133.489 133.489c-5.785 5.829-9.36 13.858-9.36 22.722 0 8.862 3.574 16.89 9.359 22.72l-0.002-0.002zM513.782 579.709c-5.85-5.737-13.871-9.278-22.72-9.278s-16.87 3.541-22.725 9.283l0.005-0.005-78.771 79.091v-498.8c0-17.673-14.327-32-32-32s-32 14.327-32 32v0 498.8l-78.771-79.091c-5.805-5.759-13.801-9.318-22.627-9.318-17.746 0-32.131 14.386-32.131 32.131 0 8.827 3.559 16.822 9.321 22.629l133.486 133.489c5.829 5.784 13.857 9.358 22.72 9.358s16.891-3.574 22.722-9.36l133.489-133.489c5.785-5.829 9.36-13.858 9.36-22.722 0-8.862-3.574-16.89-9.359-22.72l0.002 0.002z" />
<glyph unicode="&#xe943;" glyph-name="qr-code" data-tags="qr-code" d="M736 288h64v-64h-64v64zM864 288h64v-128h-64v128zM672 224h64v-64h-64v64zM544 32v64h64v-64h64v64h-64v64h-128v-128h64zM800 32v64h64v64h-128v-128h64zM416 288h64v-128h-64v128zM608 416h64v-64h-64v64zM480 672v-64h-64v-64h128v128h-64zM480 864h64v-64h-64v64zM544 736h64v-64h-64v64zM864 544h-128v-64h-64v-64h64v-64h192v128h-64zM864 416h-128v64h128zM544 544h64v-128h-64v128zM160 544h64v-64h-64v64zM96 480h64v-128h-64v128zM224 416h64v-64h64v64h-64v64h-64v-64zM416 800h64v-128h-64v128zM480 352v-64h64v-64h128v64h-128v64h-64v128h-64v-128h64zM288 544h128v-64h-128v64zM288 800v-128h-128v128h128zM288 864h-128c-35.346 0-64-28.654-64-64v0-128c0-35.346 28.654-64 64-64v0h128c35.346 0 64 28.654 64 64v0 128c0 35.346-28.654 64-64 64v0zM192 768h64v-64h-64v64zM288 224v-128h-128v128h128zM288 288h-128c-35.346 0-64-28.654-64-64v0-128c0-35.346 28.654-64 64-64v0h128c35.346 0 64 28.654 64 64v0 128c0 35.346-28.654 64-64 64v0zM192 192h64v-64h-64v64zM864 800v-128h-128v128h128zM864 864h-128c-35.346 0-64-28.654-64-64v0-128c0-35.346 28.654-64 64-64v0h128c35.346 0 64 28.654 64 64v0 128c0 35.346-28.654 64-64 64v0zM768 768h64v-64h-64v64z" />
<glyph unicode="&#xe944;" glyph-name="social-whatsapp" data-tags="social-whatsapp" d="M512 35.293h-0.166c-68.176 0.046-132.509 16.455-189.297 45.513l2.353-1.093-177.792-40.442c-2.16-0.512-4.641-0.805-7.19-0.805-17.952 0-32.506 14.553-32.506 32.506 0 2.473 0.276 4.881 0.799 7.195l-0.041-0.217 38.522 175.104c-31.385 56.117-50.097 123.031-50.68 194.266l-0.001 0.175v0.682c0 0.066 0 0.144 0 0.222 0 114.147 46.868 217.346 122.41 291.406l0.067 0.065c75.213 74.682 178.836 120.838 293.24 120.838 114.454 0 218.119-46.197 293.364-120.962l-0.021 0.021c75.884-74.131 122.941-177.485 122.941-291.829 0-86.245-26.771-166.238-72.456-232.121l0.885 1.349c-5.935-8.589-15.729-14.146-26.821-14.146-17.949 0-32.499 14.55-32.499 32.499 0 6.857 2.124 13.219 5.749 18.462l-0.071-0.108c37.689 54.266 60.211 121.536 60.211 194.067 0 96.353-39.746 183.423-103.738 245.708l-0.077 0.074c-63.417 63.029-150.821 101.988-247.324 101.988-192.404 0-348.638-154.862-350.856-346.741l-0.002-0.21v-0.614c0.539-64.134 18.375-123.991 49.060-175.275l-0.877 1.582c2.758-4.673 4.387-10.296 4.387-16.3 0-2.477-0.277-4.889-0.803-7.207l0.041 0.217-30.17-137.139 139.488 31.731c2.163 0.512 4.646 0.805 7.198 0.805 5.688 0 11.036-1.458 15.69-4.020l-0.169 0.085c48.267-26.62 105.795-42.297 166.981-42.333h0.171c0.004 0 0.007 0 0.011 0 66.434 0 128.566 18.423 181.564 50.438l-1.575-0.883c4.678 2.762 10.308 4.394 16.319 4.394 17.949 0 32.499-14.55 32.499-32.499 0-11.675-6.156-21.912-15.4-27.642l-0.139-0.080c-60.932-36.894-134.555-58.726-213.276-58.726-0.001 0-0.003 0-0.004 0v0zM417.632 623.651c-7.075 15.549-14.525 16.080-21.258 16.349h-18.106c-10.025-0.255-18.963-4.702-25.164-11.646l-0.030-0.034c-20.385-19.068-33.089-46.13-33.089-76.159 0-0.605 0.005-1.208 0.015-1.81l-0.001 0.091c3.347-36.935 17.344-70.077 38.856-96.94l-0.277 0.357c39.676-61.025 94.416-109.204 159.052-139.95l2.337-1.001c79.811-31.107 96.051-24.918 113.37-23.36 27.21 5.321 49.849 21.608 63.532 43.97l0.237 0.417c4.192 9.208 6.636 19.97 6.636 31.303 0 4.625-0.407 9.155-1.187 13.556l0.068-0.465c-2.358 3.888-8.659 6.227-18.109 10.88s-55.757 27.648-64.419 30.762-14.954 4.669-21.258-4.682-24.858-30.931-30.371-37.155-11.024-7.021-20.48-2.352c-29.102 11.822-54.141 27.508-75.945 46.771l0.281-0.243c-20.508 18.906-38.111 40.522-52.355 64.376l-0.727 1.314c-5.517 9.338-0.595 14.4 4.16 19.059 4.24 4.179 9.981 9.898 14.72 15.36 3.638 4.483 6.731 9.622 9.052 15.163l0.154 0.414c1.087 2.18 1.724 4.748 1.724 7.466 0 3.288-0.932 6.359-2.547 8.962l0.042-0.073c-2.365 4.669-20.502 50.851-28.906 69.315z" />
<glyph unicode="&#xe945;" glyph-name="social-instagram" data-tags="social-instagram" d="M928 384v224c0 141.385-114.615 256-256 256v0h-320c-141.385 0-256-114.615-256-256v0-320c0-141.385 114.615-256 256-256v0h320c115.689 0.227 213.397 76.948 245.255 182.265l0.473 1.818c0.676 2.446 1.065 5.256 1.065 8.156 0 17.542-14.221 31.763-31.763 31.763-0.122 0-0.245-0.001-0.367-0.002h-0.263c-0.112 0.001-0.243 0.002-0.375 0.002-13.985 0-25.828-9.174-29.839-21.832l-0.061-0.222c-24.041-80.372-97.319-137.949-184.045-137.949-0.028 0-0.056 0-0.084 0h-319.996c-106.039 0-192 85.961-192 192v0 320c0 106.039 85.961 192 192 192v0h320c106.039 0 192-85.961 192-192v0-224c0-17.673 14.327-32 32-32v0 0c17.673 0 32 14.327 32 32v0zM512 256c-106.039 0-192 85.961-192 192s85.961 192 192 192c106.039 0 192-85.961 192-192v0c-0.12-105.99-86.010-191.88-191.989-192h-0.011zM512 576c-70.692 0-128-57.308-128-128s57.308-128 128-128c70.692 0 128 57.308 128 128v0c-0.082 70.659-57.34 127.918-127.992 128h-0.008zM768 672c0-17.673-14.327-32-32-32s-32 14.327-32 32c0 17.673 14.327 32 32 32s32-14.327 32-32z" />
</font>
</defs>
</svg>
